<svg viewBox="0 0 800 450" xmlns="http://www.w3.org/2000/svg">
  <rect width="800" height="450" fill="#1a1a2e"/>
  <!-- Envelope sketch -->
  <path d="M200 130 L400 260 L600 130" fill="none" stroke="#2DD4BF" stroke-width="3" stroke-linecap="round" stroke-linejoin="round" stroke-dasharray="none"/>
  <rect x="198" y="128" width="404" height="200" rx="6" fill="none" stroke="#2DD4BF" stroke-width="3" stroke-linecap="round" stroke-linejoin="round"/>
  <!-- Wrench/tool icon -->
  <circle cx="160" cy="100" r="18" fill="none" stroke="#F87171" stroke-width="2.5" stroke-dasharray="4 2"/>
  <line x1="160" y1="118" x2="160" y2="155" stroke="#F87171" stroke-width="2.5" stroke-linecap="round"/>
  <!-- Checklist lines -->
  <rect x="280" y="175" width="14" height="14" rx="2" fill="none" stroke="#F87171" stroke-width="2"/>
  <polyline points="282,183 286,187 294,178" fill="none" stroke="#F87171" stroke-width="2" stroke-linecap="round"/>
  <line x1="304" y1="182" x2="420" y2="182" stroke="#2DD4BF" stroke-width="2" stroke-linecap="round" opacity="0.6"/>
  <rect x="280" y="200" width="14" height="14" rx="2" fill="none" stroke="#F87171" stroke-width="2"/>
  <polyline points="282,208 286,212 294,203" fill="none" stroke="#F87171" stroke-width="2" stroke-linecap="round"/>
  <line x1="304" y1="207" x2="440" y2="207" stroke="#2DD4BF" stroke-width="2" stroke-linecap="round" opacity="0.6"/>
  <rect x="280" y="225" width="14" height="14" rx="2" fill="none" stroke="#F87171" stroke-width="2"/>
  <line x1="304" y1="232" x2="390" y2="232" stroke="#2DD4BF" stroke-width="2" stroke-linecap="round" opacity="0.4"/>
  <!-- 11 dots scattered -->
  <circle cx="650" cy="160" r="5" fill="#F87171" opacity="0.7"/>
  <circle cx="670" cy="185" r="4" fill="#2DD4BF" opacity="0.6"/>
  <circle cx="690" cy="155" r="3" fill="#F87171" opacity="0.5"/>
  <circle cx="660" cy="210" r="5" fill="#2DD4BF" opacity="0.7"/>
  <circle cx="640" cy="195" r="3" fill="#F87171" opacity="0.6"/>
  <!-- Sparkle accents -->
  <path d="M130 320 L135 310 L140 320 L135 330Z" fill="#2DD4BF" opacity="0.4"/>
  <path d="M680 300 L685 290 L690 300 L685 310Z" fill="#F87171" opacity="0.4"/>
  <!-- Title text -->
  <text x="400" y="390" text-anchor="middle" fill="#2DD4BF" font-family="sans-serif" font-size="22" font-weight="bold" opacity="0.9">11 Email List Maintenance Tips</text>
  <text x="400" y="420" text-anchor="middle" fill="#F87171" font-family="sans-serif" font-size="14" opacity="0.7">for Business Owners</text>
</svg>