<svg viewBox="0 0 800 450" xmlns="http://www.w3.org/2000/svg">
  <rect width="800" height="450" fill="#1a1a2e"/>
  <!-- Broom/sweeping motif -->
  <line x1="250" y1="100" x2="350" y2="280" stroke="#F87171" stroke-width="3.5" stroke-linecap="round"/>
  <path d="M330 250 Q350 290 370 250" fill="none" stroke="#F87171" stroke-width="2.5" stroke-linecap="round"/>
  <path d="M340 260 Q355 295 375 260" fill="none" stroke="#F87171" stroke-width="2" stroke-linecap="round"/>
  <path d="M320 240 Q345 285 365 240" fill="none" stroke="#F87171" stroke-width="2" stroke-linecap="round"/>
  <!-- Email list with strikethroughs -->
  <rect x="430" y="100" width="250" height="200" rx="8" fill="none" stroke="#2DD4BF" stroke-width="2.5"/>
  <line x1="450" y1="135" x2="600" y2="135" stroke="#2DD4BF" stroke-width="2" stroke-linecap="round" opacity="0.7"/>
  <line x1="450" y1="135" x2="600" y2="135" stroke="#F87171" stroke-width="1.5" stroke-linecap="round" transform="rotate(3 525 135)"/>
  <line x1="450" y1="165" x2="620" y2="165" stroke="#2DD4BF" stroke-width="2" stroke-linecap="round" opacity="0.7"/>
  <polyline points="630,158 638,168 650,152" fill="none" stroke="#2DD4BF" stroke-width="2" stroke-linecap="round"/>
  <line x1="450" y1="195" x2="580" y2="195" stroke="#2DD4BF" stroke-width="2" stroke-linecap="round" opacity="0.7"/>
  <line x1="450" y1="195" x2="580" y2="195" stroke="#F87171" stroke-width="1.5" stroke-linecap="round" transform="rotate(-2 515 195)"/>
  <line x1="450" y1="225" x2="610" y2="225" stroke="#2DD4BF" stroke-width="2" stroke-linecap="round" opacity="0.7"/>
  <polyline points="620,218 628,228 640,212" fill="none" stroke="#2DD4BF" stroke-width="2" stroke-linecap="round"/>
  <line x1="450" y1="255" x2="590" y2="255" stroke="#2DD4BF" stroke-width="2" stroke-linecap="round" opacity="0.7"/>
  <polyline points="600,248 608,258 620,242" fill="none" stroke="#2DD4BF" stroke-width="2" stroke-linecap="round"/>
  <!-- Sparkle particles from broom -->
  <circle cx="300" cy="290" r="3" fill="#2DD4BF" opacity="0.5"/>
  <circle cx="280" cy="310" r="2" fill="#F87171" opacity="0.4"/>
  <circle cx="320" cy="305" r="4" fill="#2DD4BF" opacity="0.3"/>
  <path d="M160 200 L165 190 L170 200 L165 210Z" fill="#2DD4BF" opacity="0.4"/>
  <!-- Title -->
  <text x="400" y="380" text-anchor="middle" fill="#2DD4BF" font-family="sans-serif" font-size="22" font-weight="bold" opacity="0.9">5 Tips to Clean Your Email List</text>
  <text x="400" y="410" text-anchor="middle" fill="#F87171" font-family="sans-serif" font-size="14" opacity="0.7">Effectively</text>
</svg>