<svg viewBox="0 0 800 450" xmlns="http://www.w3.org/2000/svg">
  <rect width="800" height="450" fill="#1a1a2e"/>
  <!-- Rocket sketch -->
  <path d="M400 80 Q390 120 380 170 L420 170 Q410 120 400 80Z" fill="none" stroke="#F87171" stroke-width="3" stroke-linecap="round" stroke-linejoin="round"/>
  <path d="M380 170 L370 190 L400 180 L430 190 L420 170" fill="none" stroke="#F87171" stroke-width="2.5" stroke-linecap="round" stroke-linejoin="round"/>
  <!-- Flame -->
  <path d="M390 190 Q400 220 395 230 Q400 225 405 230 Q400 220 410 190" fill="none" stroke="#2DD4BF" stroke-width="2" stroke-linecap="round"/>
  <!-- 6 step circles connected -->
  <circle cx="180" cy="250" r="18" fill="none" stroke="#2DD4BF" stroke-width="2.5"/>
  <text x="180" y="256" text-anchor="middle" fill="#2DD4BF" font-family="sans-serif" font-size="14" font-weight="bold">1</text>
  <line x1="198" y1="250" x2="262" y2="250" stroke="#2DD4BF" stroke-width="1.5" stroke-dasharray="4 3" stroke-linecap="round"/>
  <circle cx="280" cy="250" r="18" fill="none" stroke="#F87171" stroke-width="2.5"/>
  <text x="280" y="256" text-anchor="middle" fill="#F87171" font-family="sans-serif" font-size="14" font-weight="bold">2</text>
  <line x1="298" y1="250" x2="362" y2="250" stroke="#F87171" stroke-width="1.5" stroke-dasharray="4 3" stroke-linecap="round"/>
  <circle cx="380" cy="250" r="18" fill="none" stroke="#2DD4BF" stroke-width="2.5"/>
  <text x="380" y="256" text-anchor="middle" fill="#2DD4BF" font-family="sans-serif" font-size="14" font-weight="bold">3</text>
  <line x1="398" y1="250" x2="462" y2="250" stroke="#2DD4BF" stroke-width="1.5" stroke-dasharray="4 3" stroke-linecap="round"/>
  <circle cx="480" cy="250" r="18" fill="none" stroke="#F87171" stroke-width="2.5"/>
  <text x="480" y="256" text-anchor="middle" fill="#F87171" font-family="sans-serif" font-size="14" font-weight="bold">4</text>
  <line x1="498" y1="250" x2="562" y2="250" stroke="#F87171" stroke-width="1.5" stroke-dasharray="4 3" stroke-linecap="round"/>
  <circle cx="580" cy="250" r="18" fill="none" stroke="#2DD4BF" stroke-width="2.5"/>
  <text x="580" y="256" text-anchor="middle" fill="#2DD4BF" font-family="sans-serif" font-size="14" font-weight="bold">5</text>
  <line x1="598" y1="250" x2="662" y2="250" stroke="#2DD4BF" stroke-width="1.5" stroke-dasharray="4 3" stroke-linecap="round"/>
  <circle cx="680" cy="250" r="18" fill="none" stroke="#F87171" stroke-width="2.5"/>
  <text x="680" y="256" text-anchor="middle" fill="#F87171" font-family="sans-serif" font-size="14" font-weight="bold">6</text>
  <!-- Envelope icons -->
  <rect x="155" y="130" width="40" height="28" rx="3" fill="none" stroke="#2DD4BF" stroke-width="1.5" opacity="0.4"/>
  <path d="M155 130 L175 148 L195 130" fill="none" stroke="#2DD4BF" stroke-width="1.5" opacity="0.4"/>
  <rect x="570" y="120" width="40" height="28" rx="3" fill="none" stroke="#F87171" stroke-width="1.5" opacity="0.4"/>
  <path d="M570 120 L590 138 L610 120" fill="none" stroke="#F87171" stroke-width="1.5" opacity="0.4"/>
  <!-- Sparkles -->
  <circle cx="450" cy="100" r="3" fill="#2DD4BF" opacity="0.4"/>
  <circle cx="340" cy="90" r="2" fill="#F87171" opacity="0.5"/>
  <!-- Title -->
  <text x="400" y="370" text-anchor="middle" fill="#2DD4BF" font-family="sans-serif" font-size="20" font-weight="bold" opacity="0.9">6 Steps: Product Launch</text>
  <text x="400" y="400" text-anchor="middle" fill="#F87171" font-family="sans-serif" font-size="14" opacity="0.7">Email Sequence</text>
</svg>