<svg viewBox="0 0 800 450" xmlns="http://www.w3.org/2000/svg">
  <rect width="800" height="450" fill="#1a1a2e"/>
  <!-- Clipboard with checklist -->
  <rect x="280" y="60" width="240" height="280" rx="10" fill="none" stroke="#2DD4BF" stroke-width="3"/>
  <rect x="340" y="48" width="120" height="24" rx="8" fill="none" stroke="#2DD4BF" stroke-width="2.5"/>
  <!-- Checklist items -->
  <rect x="310" y="100" width="16" height="16" rx="2" fill="none" stroke="#2DD4BF" stroke-width="2"/>
  <polyline points="312,108 318,115 328,103" fill="none" stroke="#2DD4BF" stroke-width="2" stroke-linecap="round"/>
  <line x1="340" y1="108" x2="470" y2="108" stroke="#2DD4BF" stroke-width="2" stroke-linecap="round" opacity="0.6"/>
  <rect x="310" y="135" width="16" height="16" rx="2" fill="none" stroke="#F87171" stroke-width="2"/>
  <polyline points="312,143 318,150 328,138" fill="none" stroke="#F87171" stroke-width="2" stroke-linecap="round"/>
  <line x1="340" y1="143" x2="450" y2="143" stroke="#F87171" stroke-width="2" stroke-linecap="round" opacity="0.5"/>
  <rect x="310" y="170" width="16" height="16" rx="2" fill="none" stroke="#2DD4BF" stroke-width="2"/>
  <polyline points="312,178 318,185 328,173" fill="none" stroke="#2DD4BF" stroke-width="2" stroke-linecap="round"/>
  <line x1="340" y1="178" x2="460" y2="178" stroke="#2DD4BF" stroke-width="2" stroke-linecap="round" opacity="0.6"/>
  <rect x="310" y="205" width="16" height="16" rx="2" fill="none" stroke="#F87171" stroke-width="2"/>
  <line x1="340" y1="213" x2="440" y2="213" stroke="#F87171" stroke-width="2" stroke-linecap="round" opacity="0.4"/>
  <rect x="310" y="240" width="16" height="16" rx="2" fill="none" stroke="#2DD4BF" stroke-width="2"/>
  <line x1="340" y1="248" x2="480" y2="248" stroke="#2DD4BF" stroke-width="2" stroke-linecap="round" opacity="0.4"/>
  <rect x="310" y="275" width="16" height="16" rx="2" fill="none" stroke="#F87171" stroke-width="2"/>
  <line x1="340" y1="283" x2="455" y2="283" stroke="#F87171" stroke-width="2" stroke-linecap="round" opacity="0.3"/>
  <!-- Sparkle/clean symbol -->
  <path d="M590 120 L600 90 L610 120 L640 130 L610 140 L600 170 L590 140 L560 130Z" fill="none" stroke="#F87171" stroke-width="2" stroke-linejoin="round"/>
  <path d="M600 200 L605 185 L610 200 L625 205 L610 210 L605 225 L600 210 L585 205Z" fill="none" stroke="#2DD4BF" stroke-width="1.5" stroke-linejoin="round" opacity="0.5"/>
  <!-- Trash can -->
  <rect x="580" y="260" width="40" height="50" rx="3" fill="none" stroke="#F87171" stroke-width="2" opacity="0.5"/>
  <line x1="575" y1="260" x2="625" y2="260" stroke="#F87171" stroke-width="2" stroke-linecap="round" opacity="0.5"/>
  <line x1="593" y1="270" x2="593" y2="300" stroke="#F87171" stroke-width="1.5" opacity="0.4"/>
  <line x1="607" y1="270" x2="607" y2="300" stroke="#F87171" stroke-width="1.5" opacity="0.4"/>
  <!-- Sparkles -->
  <circle cx="180" cy="180" r="3" fill="#2DD4BF" opacity="0.4"/>
  <circle cx="700" cy="150" r="4" fill="#F87171" opacity="0.3"/>
  <!-- Title -->
  <text x="400" y="380" text-anchor="middle" fill="#2DD4BF" font-family="sans-serif" font-size="22" font-weight="bold" opacity="0.9">Best Practices</text>
  <text x="400" y="410" text-anchor="middle" fill="#F87171" font-family="sans-serif" font-size="14" opacity="0.7">for Email List Cleaning</text>
</svg>