<svg viewBox="0 0 800 450" xmlns="http://www.w3.org/2000/svg">
  <rect width="800" height="450" fill="#1a1a2e"/>
  <!-- Torn envelope -->
  <rect x="270" y="120" width="260" height="180" rx="4" stroke="#2DD4BF" stroke-width="3" fill="none"/>
  <path d="M270 120 L400 220 L530 120" stroke="#2DD4BF" stroke-width="3" fill="none" stroke-linecap="round"/>
  <!-- Zigzag tear line -->
  <path d="M270 220 L290 215 L310 225 L330 215 L350 225 L370 215 L390 225 L410 215 L430 225 L450 215 L470 225 L490 215 L510 225 L530 220" stroke="#F87171" stroke-width="2.5" fill="none" stroke-linecap="round"/>
  <!-- Broken heart -->
  <path d="M390 310 Q390 280 370 280 Q350 280 350 305 Q350 330 390 355" stroke="#F87171" stroke-width="2.5" fill="none"/>
  <path d="M410 310 Q410 280 430 280 Q450 280 450 305 Q450 330 410 355" stroke="#F87171" stroke-width="2.5" fill="none"/>
  <line x1="398" y1="285" x2="402" y2="355" stroke="#1a1a2e" stroke-width="4"/>
  <!-- Wave goodbye hand -->
  <path d="M580 180 Q590 160 585 140" stroke="#2DD4BF" stroke-width="2" fill="none" stroke-linecap="round"/>
  <path d="M590 180 Q600 155 595 135" stroke="#2DD4BF" stroke-width="2" fill="none" stroke-linecap="round"/>
  <path d="M600 185 Q610 165 605 145" stroke="#2DD4BF" stroke-width="2" fill="none" stroke-linecap="round"/>
  <path d="M570 200 Q560 190 580 180 L600 185 Q615 190 610 200 Q600 215 580 210 Q565 210 570 200" stroke="#2DD4BF" stroke-width="2" fill="none"/>
  <!-- Label -->
  <text x="400" y="410" font-family="monospace" font-size="13" fill="#2DD4BF" text-anchor="middle" opacity="0.7">BREAKUP EMAIL</text>
  <path d="M320 420 Q400 424 480 420" stroke="#F87171" stroke-width="1.5" fill="none" stroke-dasharray="5 4"/>
</svg>