<svg viewBox="0 0 800 450" xmlns="http://www.w3.org/2000/svg">
  <rect width="800" height="450" fill="#1a1a2e"/>
  <!-- Podium -->
  <rect x="330" y="180" width="70" height="130" rx="3" stroke="#F87171" stroke-width="2.5" fill="none"/>
  <text x="365" y="210" font-family="monospace" font-size="18" fill="#F87171" text-anchor="middle">1</text>
  <rect x="250" y="220" width="70" height="90" rx="3" stroke="#2DD4BF" stroke-width="2" fill="none"/>
  <text x="285" y="250" font-family="monospace" font-size="18" fill="#2DD4BF" text-anchor="middle">2</text>
  <rect x="410" y="240" width="70" height="70" rx="3" stroke="#2DD4BF" stroke-width="2" fill="none"/>
  <text x="445" y="270" font-family="monospace" font-size="18" fill="#2DD4BF" text-anchor="middle">3</text>
  <!-- Trophy on first place -->
  <path d="M350 170 L350 140 Q350 120 365 120 Q380 120 380 140 L380 170" stroke="#F87171" stroke-width="2" fill="none"/>
  <path d="M345 145 Q335 145 335 155 Q335 165 350 165" stroke="#F87171" stroke-width="1.5" fill="none"/>
  <path d="M385 145 Q395 145 395 155 Q395 165 380 165" stroke="#F87171" stroke-width="1.5" fill="none"/>
  <!-- Email icons on podium -->
  <rect x="342" y="240" width="44" height="28" rx="2" stroke="#F87171" stroke-width="1.5" fill="none"/>
  <path d="M342 240 L364 258 L386 240" stroke="#F87171" stroke-width="1.5" fill="none"/>
  <!-- Checklist on right -->
  <rect x="540" y="150" width="160" height="160" rx="5" stroke="#2DD4BF" stroke-width="2" fill="none"/>
  <path d="M560 185 L570 195 L585 175" stroke="#2DD4BF" stroke-width="2" fill="none" stroke-linecap="round"/>
  <line x1="600" y1="185" x2="680" y2="185" stroke="#2DD4BF" stroke-width="1.5" opacity="0.4"/>
  <path d="M560 215 L570 225 L585 205" stroke="#F87171" stroke-width="2" fill="none" stroke-linecap="round"/>
  <line x1="600" y1="215" x2="680" y2="215" stroke="#F87171" stroke-width="1.5" opacity="0.4"/>
  <path d="M560 245 L570 255 L585 235" stroke="#2DD4BF" stroke-width="2" fill="none" stroke-linecap="round"/>
  <line x1="600" y1="245" x2="670" y2="245" stroke="#2DD4BF" stroke-width="1.5" opacity="0.4"/>
  <path d="M560 275 L570 285 L585 265" stroke="#2DD4BF" stroke-width="2" fill="none" stroke-linecap="round"/>
  <line x1="600" y1="275" x2="660" y2="275" stroke="#2DD4BF" stroke-width="1.5" opacity="0.4"/>
  <!-- Label -->
  <text x="400" y="390" font-family="monospace" font-size="13" fill="#2DD4BF" text-anchor="middle" opacity="0.7">CLEAROUT ALTERNATIVES</text>
</svg>