<svg xmlns="http://www.w3.org/2000/svg" viewBox="0 0 800 450">
  <rect width="800" height="450" fill="#fff7ed" rx="8"/>

  <!-- Laptop body (sketchy) -->
  <rect x="180" y="80" width="440" height="260" rx="10" fill="#ffffff" stroke="#1e3a8a" stroke-width="3.5" stroke-linecap="round" stroke-linejoin="round"/>
  <rect x="195" y="95" width="410" height="230" rx="4" fill="#1e3a8a" opacity="0.05"/>

  <!-- Laptop base -->
  <path d="M150 345 L650 345 L630 372 L170 372 Z" fill="#ffffff" stroke="#1e3a8a" stroke-width="3" stroke-linejoin="round"/>
  <line x1="360" y1="358" x2="440" y2="358" stroke="#1e3a8a" stroke-width="2.5" stroke-linecap="round"/>

  <!-- Camera grid (cohort kickoff vibe) -->
  <g transform="translate(215, 115)">
    <!-- Row 1 -->
    <rect x="0" y="0" width="80" height="55" rx="4" fill="#22c55e" opacity="0.18" stroke="#1e3a8a" stroke-width="2"/>
    <circle cx="40" cy="22" r="9" fill="none" stroke="#1e3a8a" stroke-width="1.8"/>
    <path d="M28 42 Q40 30 52 42" fill="none" stroke="#1e3a8a" stroke-width="1.8" stroke-linecap="round"/>
    <path d="M62 4 L66 8 L74 -2" fill="none" stroke="#22c55e" stroke-width="2.4" stroke-linecap="round" stroke-linejoin="round"/>

    <rect x="95" y="0" width="80" height="55" rx="4" fill="#ef4444" opacity="0.12" stroke="#94a3b8" stroke-width="2" stroke-dasharray="3 3"/>
    <text x="135" y="33" font-family="system-ui, sans-serif" font-size="22" fill="#94a3b8" text-anchor="middle" font-weight="700">?</text>
    <path d="M154 4 L168 18 M168 4 L154 18" stroke="#ef4444" stroke-width="2.6" stroke-linecap="round"/>

    <rect x="190" y="0" width="80" height="55" rx="4" fill="#22c55e" opacity="0.18" stroke="#1e3a8a" stroke-width="2"/>
    <circle cx="230" cy="22" r="9" fill="none" stroke="#1e3a8a" stroke-width="1.8"/>
    <path d="M218 42 Q230 30 242 42" fill="none" stroke="#1e3a8a" stroke-width="1.8" stroke-linecap="round"/>
    <path d="M252 4 L256 8 L264 -2" fill="none" stroke="#22c55e" stroke-width="2.4" stroke-linecap="round" stroke-linejoin="round"/>

    <rect x="285" y="0" width="80" height="55" rx="4" fill="#22c55e" opacity="0.18" stroke="#1e3a8a" stroke-width="2"/>
    <circle cx="325" cy="22" r="9" fill="none" stroke="#1e3a8a" stroke-width="1.8"/>
    <path d="M313 42 Q325 30 337 42" fill="none" stroke="#1e3a8a" stroke-width="1.8" stroke-linecap="round"/>

    <!-- Row 2 -->
    <rect x="0" y="70" width="80" height="55" rx="4" fill="#ef4444" opacity="0.12" stroke="#94a3b8" stroke-width="2" stroke-dasharray="3 3"/>
    <text x="40" y="103" font-family="system-ui, sans-serif" font-size="22" fill="#94a3b8" text-anchor="middle" font-weight="700">?</text>
    <path d="M59 74 L73 88 M73 74 L59 88" stroke="#ef4444" stroke-width="2.6" stroke-linecap="round"/>

    <rect x="95" y="70" width="80" height="55" rx="4" fill="#22c55e" opacity="0.18" stroke="#1e3a8a" stroke-width="2"/>
    <circle cx="135" cy="92" r="9" fill="none" stroke="#1e3a8a" stroke-width="1.8"/>
    <path d="M123 112 Q135 100 147 112" fill="none" stroke="#1e3a8a" stroke-width="1.8" stroke-linecap="round"/>
    <path d="M157 74 L161 78 L169 68" fill="none" stroke="#22c55e" stroke-width="2.4" stroke-linecap="round" stroke-linejoin="round"/>

    <rect x="190" y="70" width="80" height="55" rx="4" fill="#22c55e" opacity="0.18" stroke="#1e3a8a" stroke-width="2"/>
    <circle cx="230" cy="92" r="9" fill="none" stroke="#1e3a8a" stroke-width="1.8"/>
    <path d="M218 112 Q230 100 242 112" fill="none" stroke="#1e3a8a" stroke-width="1.8" stroke-linecap="round"/>
    <path d="M252 74 L256 78 L264 68" fill="none" stroke="#22c55e" stroke-width="2.4" stroke-linecap="round" stroke-linejoin="round"/>

    <rect x="285" y="70" width="80" height="55" rx="4" fill="#ef4444" opacity="0.12" stroke="#94a3b8" stroke-width="2" stroke-dasharray="3 3"/>
    <text x="325" y="103" font-family="system-ui, sans-serif" font-size="22" fill="#94a3b8" text-anchor="middle" font-weight="700">?</text>
    <path d="M344 74 L358 88 M358 74 L344 88" stroke="#ef4444" stroke-width="2.6" stroke-linecap="round"/>
  </g>

  <!-- LIVE indicator -->
  <circle cx="220" cy="105" r="6" fill="#ef4444"/>
  <text x="232" y="110" font-family="system-ui, sans-serif" font-size="12" fill="#ef4444" font-weight="700" letter-spacing="1">KICKOFF</text>

  <!-- Floating envelope (delivered) -->
  <g transform="translate(670, 110) rotate(8)">
    <rect x="0" y="0" width="56" height="38" rx="3" fill="#ffffff" stroke="#1e3a8a" stroke-width="2.2"/>
    <path d="M2 3 L28 22 L54 3" fill="none" stroke="#1e3a8a" stroke-width="1.6" stroke-linecap="round"/>
    <path d="M40 14 L46 20 L58 6" stroke="#22c55e" stroke-width="2.6" stroke-linecap="round" fill="none"/>
  </g>

  <!-- Floating envelope (bounced) -->
  <g transform="translate(60, 240) rotate(-12)">
    <rect x="0" y="0" width="56" height="38" rx="3" fill="#ffffff" stroke="#1e3a8a" stroke-width="2.2"/>
    <path d="M2 3 L28 22 L54 3" fill="none" stroke="#1e3a8a" stroke-width="1.6" stroke-linecap="round"/>
    <path d="M42 8 L54 20 M54 8 L42 20" stroke="#ef4444" stroke-width="2.6" stroke-linecap="round"/>
  </g>

  <!-- Title -->
  <text x="400" y="415" font-family="system-ui, sans-serif" font-size="18" fill="#1e3a8a" text-anchor="middle" font-weight="700" letter-spacing="0.3">Clean Enrollments Before Kickoff</text>
</svg>
