<svg xmlns="http://www.w3.org/2000/svg" viewBox="0 0 800 450">
  <rect width="800" height="450" fill="#1a1a2e"/>
  <circle cx="400" cy="180" r="65" fill="none" stroke="#2DD4BF" stroke-width="3" stroke-dasharray="8 4"/>
  <line x1="370" y1="160" x2="380" y2="175" stroke="#F87171" stroke-width="2.5" stroke-linecap="round"/>
  <line x1="420" y1="160" x2="410" y2="175" stroke="#F87171" stroke-width="2.5" stroke-linecap="round"/>
  <path d="M375 200 Q400 220 425 200" fill="none" stroke="#F87171" stroke-width="2.5" stroke-linecap="round"/>
  <path d="M335 245 Q330 280 340 310 Q350 340 400 350 Q450 340 460 310 Q470 280 465 245" fill="none" stroke="#2DD4BF" stroke-width="3" stroke-linecap="round"/>
  <path d="M200 320 L280 290 Q300 285 310 300" fill="none" stroke="#F87171" stroke-width="2" stroke-linecap="round" stroke-dasharray="6 3"/>
  <path d="M600 320 L520 290 Q500 285 490 300" fill="none" stroke="#F87171" stroke-width="2" stroke-linecap="round" stroke-dasharray="6 3"/>
  <path d="M150 350 Q180 330 210 340 Q240 350 260 335" fill="none" stroke="#2DD4BF" stroke-width="2" stroke-linecap="round" opacity="0.5"/>
  <path d="M540 350 Q570 330 600 340 Q630 350 660 335" fill="none" stroke="#2DD4BF" stroke-width="2" stroke-linecap="round" opacity="0.5"/>
  <circle cx="160" cy="130" r="4" fill="#F87171" opacity="0.6"/>
  <circle cx="640" cy="110" r="3" fill="#2DD4BF" opacity="0.6"/>
  <circle cx="680" cy="160" r="5" fill="#F87171" opacity="0.4"/>
  <circle cx="120" cy="180" r="3" fill="#2DD4BF" opacity="0.5"/>
  <text x="400" y="410" text-anchor="middle" fill="#2DD4BF" font-family="sans-serif" font-size="22" font-weight="bold" opacity="0.9">20 Years of Lead Gen Innovation</text>
</svg>