<svg xmlns="http://www.w3.org/2000/svg" viewBox="0 0 800 450">
  <rect width="800" height="450" fill="#1a1a2e"/>
  <rect x="280" y="100" width="240" height="160" rx="12" fill="none" stroke="#2DD4BF" stroke-width="3"/>
  <path d="M280 112 L400 200 L520 112" fill="none" stroke="#2DD4BF" stroke-width="3" stroke-linecap="round" stroke-linejoin="round"/>
  <path d="M280 260 L360 200" fill="none" stroke="#2DD4BF" stroke-width="2" stroke-linecap="round" opacity="0.5"/>
  <path d="M520 260 L440 200" fill="none" stroke="#2DD4BF" stroke-width="2" stroke-linecap="round" opacity="0.5"/>
  <circle cx="555" cy="125" r="28" fill="none" stroke="#F87171" stroke-width="2.5"/>
  <path d="M548 125 L553 132 L565 118" fill="none" stroke="#F87171" stroke-width="3" stroke-linecap="round" stroke-linejoin="round"/>
  <text x="555" y="170" text-anchor="middle" fill="#F87171" font-family="sans-serif" font-size="14" opacity="0.8">FREE</text>
  <path d="M160 150 L200 150" stroke="#2DD4BF" stroke-width="2" stroke-linecap="round" stroke-dasharray="4 4" opacity="0.4"/>
  <path d="M160 170 L190 170" stroke="#F87171" stroke-width="2" stroke-linecap="round" stroke-dasharray="4 4" opacity="0.4"/>
  <path d="M160 190 L210 190" stroke="#2DD4BF" stroke-width="2" stroke-linecap="round" stroke-dasharray="4 4" opacity="0.4"/>
  <path d="M600 180 L640 180" stroke="#F87171" stroke-width="2" stroke-linecap="round" stroke-dasharray="4 4" opacity="0.4"/>
  <path d="M610 200 L650 200" stroke="#2DD4BF" stroke-width="2" stroke-linecap="round" stroke-dasharray="4 4" opacity="0.4"/>
  <circle cx="140" cy="150" r="6" fill="#F87171" opacity="0.5"/>
  <circle cx="140" cy="170" r="6" fill="#2DD4BF" opacity="0.5"/>
  <circle cx="140" cy="190" r="6" fill="#F87171" opacity="0.5"/>
  <text x="400" y="340" text-anchor="middle" fill="#2DD4BF" font-family="sans-serif" font-size="20" font-weight="bold" opacity="0.9">Free Email Verification Tools</text>
  <path d="M250 370 Q400 395 550 370" fill="none" stroke="#F87171" stroke-width="1.5" stroke-dasharray="5 5" opacity="0.4"/>
</svg>