<svg xmlns="http://www.w3.org/2000/svg" viewBox="0 0 800 450">
  <rect width="800" height="450" fill="#1a1a2e"/>
  <rect x="250" y="80" width="300" height="200" rx="15" fill="none" stroke="#2DD4BF" stroke-width="3"/>
  <path d="M250 95 L400 190 L550 95" fill="none" stroke="#2DD4BF" stroke-width="2.5" stroke-linecap="round"/>
  <path d="M380 160 L340 140 L380 120 L420 140 Z" fill="none" stroke="#F87171" stroke-width="2.5"/>
  <path d="M395 160 L435 140 L395 120" fill="none" stroke="#F87171" stroke-width="2" opacity="0.5"/>
  <line x1="560" y1="120" x2="620" y2="120" stroke="#F87171" stroke-width="3" stroke-linecap="round"/>
  <line x1="570" y1="110" x2="610" y2="130" stroke="#F87171" stroke-width="3" stroke-linecap="round"/>
  <circle cx="590" cy="120" r="22" fill="none" stroke="#F87171" stroke-width="2" opacity="0.6"/>
  <path d="M170 300 L260 300" stroke="#2DD4BF" stroke-width="2" stroke-linecap="round" opacity="0.5"/>
  <path d="M180 320 L250 320" stroke="#2DD4BF" stroke-width="2" stroke-linecap="round" opacity="0.3"/>
  <rect x="155" y="293" width="10" height="10" fill="none" stroke="#F87171" stroke-width="1.5"/>
  <path d="M156 298 L159 301 L164 295" stroke="#F87171" stroke-width="1.5" stroke-linecap="round"/>
  <rect x="155" y="313" width="10" height="10" fill="none" stroke="#2DD4BF" stroke-width="1.5"/>
  <path d="M156 318 L159 321 L164 315" stroke="#2DD4BF" stroke-width="1.5" stroke-linecap="round"/>
  <text x="400" y="350" text-anchor="middle" fill="#2DD4BF" font-family="sans-serif" font-size="19" font-weight="bold" opacity="0.9">Gmail Bulk Sender Rules</text>
  <text x="400" y="380" text-anchor="middle" fill="#F87171" font-family="sans-serif" font-size="14" opacity="0.7">Stay Compliant, Stay Delivered</text>
</svg>