<svg xmlns="http://www.w3.org/2000/svg" viewBox="0 0 800 450">
  <rect width="800" height="450" fill="#1a1a2e"/>
  <rect x="200" y="80" width="400" height="250" rx="10" fill="none" stroke="#2DD4BF" stroke-width="2.5"/>
  <line x1="220" y1="110" x2="380" y2="110" stroke="#2DD4BF" stroke-width="2" stroke-linecap="round" opacity="0.6"/>
  <text x="230" y="155" fill="#F87171" font-family="sans-serif" font-size="28" font-style="italic" opacity="0.9">Dear...</text>
  <path d="M230 180 L450 180" stroke="#2DD4BF" stroke-width="1.5" stroke-dasharray="6 4" opacity="0.4"/>
  <path d="M230 205 L420 205" stroke="#2DD4BF" stroke-width="1.5" stroke-dasharray="6 4" opacity="0.4"/>
  <path d="M230 230 L380 230" stroke="#2DD4BF" stroke-width="1.5" stroke-dasharray="6 4" opacity="0.4"/>
  <path d="M230 255 L350 255" stroke="#2DD4BF" stroke-width="1.5" stroke-dasharray="6 4" opacity="0.4"/>
  <path d="M230 285 Q260 275 290 290 Q310 300 340 285" fill="none" stroke="#F87171" stroke-width="2" stroke-linecap="round"/>
  <path d="M480 290 L570 290 L570 310 L480 310 Z" fill="none" stroke="#F87171" stroke-width="2" rx="3"/>
  <text x="525" y="305" text-anchor="middle" fill="#F87171" font-family="sans-serif" font-size="12">SEND</text>
  <circle cx="660" cy="130" r="3" fill="#2DD4BF" opacity="0.5"/>
  <circle cx="140" cy="200" r="4" fill="#F87171" opacity="0.4"/>
  <circle cx="680" cy="250" r="3" fill="#F87171" opacity="0.5"/>
  <text x="400" y="390" text-anchor="middle" fill="#2DD4BF" font-family="sans-serif" font-size="20" font-weight="bold" opacity="0.9">Professional Email Salutations</text>
</svg>