<svg xmlns="http://www.w3.org/2000/svg" viewBox="0 0 800 450">
  <rect width="800" height="450" fill="#1a1a2e"/>
  <rect x="220" y="70" width="360" height="240" rx="10" fill="none" stroke="#2DD4BF" stroke-width="2.5"/>
  <line x1="220" y1="110" x2="580" y2="110" stroke="#2DD4BF" stroke-width="1.5" opacity="0.4"/>
  <path d="M250 90 L260 90" stroke="#F87171" stroke-width="5" stroke-linecap="round"/>
  <path d="M270 90 L280 90" stroke="#2DD4BF" stroke-width="5" stroke-linecap="round"/>
  <path d="M290 90 L300 90" stroke="#F87171" stroke-width="5" stroke-linecap="round" opacity="0.5"/>
  <path d="M250 140 L400 140" stroke="#2DD4BF" stroke-width="1.5" stroke-dasharray="4 3" opacity="0.3"/>
  <path d="M250 160 L380 160" stroke="#2DD4BF" stroke-width="1.5" stroke-dasharray="4 3" opacity="0.3"/>
  <line x1="220" y1="190" x2="580" y2="190" stroke="#2DD4BF" stroke-width="1" stroke-dasharray="2 2" opacity="0.3"/>
  <rect x="250" y="210" width="50" height="50" rx="5" fill="none" stroke="#F87171" stroke-width="2.5"/>
  <path d="M260 245 L275 225 L285 240 L290 232" fill="none" stroke="#F87171" stroke-width="1.5" stroke-linecap="round" stroke-linejoin="round"/>
  <circle cx="278" cy="222" r="4" fill="none" stroke="#F87171" stroke-width="1.5"/>
  <path d="M320 215 L420 215" stroke="#2DD4BF" stroke-width="2" stroke-linecap="round" opacity="0.6"/>
  <path d="M320 232 L400 232" stroke="#2DD4BF" stroke-width="1.5" stroke-dasharray="4 3" opacity="0.4"/>
  <path d="M320 248 L380 248" stroke="#2DD4BF" stroke-width="1.5" stroke-dasharray="4 3" opacity="0.4"/>
  <path d="M320 264 Q350 256 380 268 Q400 275 420 260" fill="none" stroke="#F87171" stroke-width="2" stroke-linecap="round" opacity="0.6"/>
  <circle cx="630" cy="160" r="4" fill="#2DD4BF" opacity="0.4"/>
  <circle cx="160" cy="200" r="3" fill="#F87171" opacity="0.4"/>
  <text x="400" y="360" text-anchor="middle" fill="#2DD4BF" font-family="sans-serif" font-size="18" font-weight="bold" opacity="0.9">Gmail Signature with Logo</text>
</svg>