<svg viewBox="0 0 800 450" xmlns="http://www.w3.org/2000/svg">
  <rect width="800" height="450" fill="#1a1a2e"/>
  <!-- Bar chart showing 42% unlock -->
  <rect x="150" y="280" width="60" height="100" rx="3" fill="none" stroke="#F87171" stroke-width="2.5" stroke-linecap="round"/>
  <rect x="150" y="280" width="60" height="100" rx="3" fill="#F87171" opacity="0.15"/>
  <rect x="250" y="220" width="60" height="160" rx="3" fill="none" stroke="#F87171" stroke-width="2.5" stroke-linecap="round"/>
  <rect x="250" y="220" width="60" height="160" rx="3" fill="#F87171" opacity="0.15"/>
  <rect x="350" y="130" width="60" height="250" rx="3" fill="none" stroke="#2DD4BF" stroke-width="3" stroke-linecap="round"/>
  <rect x="350" y="130" width="60" height="250" rx="3" fill="#2DD4BF" opacity="0.2"/>
  <!-- 42% label -->
  <text x="380" y="115" text-anchor="middle" fill="#2DD4BF" font-family="sans-serif" font-size="24" font-weight="bold">+42%</text>
  <!-- Upward arrow -->
  <path d="M380 80 L380 60" fill="none" stroke="#2DD4BF" stroke-width="2.5" stroke-linecap="round"/>
  <path d="M370 70 L380 55 L390 70" fill="none" stroke="#2DD4BF" stroke-width="2.5" stroke-linecap="round"/>
  <!-- Lock becoming unlocked -->
  <rect x="550" y="180" width="80" height="70" rx="5" fill="none" stroke="#F87171" stroke-width="2.5" stroke-linecap="round"/>
  <path d="M570 180 L570 155 C570 135 610 135 610 155 L610 170" fill="none" stroke="#F87171" stroke-width="2.5" stroke-linecap="round"/>
  <circle cx="590" cy="215" r="8" fill="none" stroke="#F87171" stroke-width="2" stroke-linecap="round"/>
  <line x1="590" y1="223" x2="590" y2="235" stroke="#F87171" stroke-width="2" stroke-linecap="round"/>
  <!-- Scattered email icons -->
  <rect x="540" y="300" width="28" height="20" rx="2" fill="none" stroke="#2DD4BF" stroke-width="1.5" opacity="0.6"/>
  <path d="M541 301 L554 313 L567 301" fill="none" stroke="#2DD4BF" stroke-width="1.5" opacity="0.6"/>
  <rect x="590" y="320" width="28" height="20" rx="2" fill="none" stroke="#2DD4BF" stroke-width="1.5" opacity="0.5"/>
  <path d="M591 321 L604 333 L617 321" fill="none" stroke="#2DD4BF" stroke-width="1.5" opacity="0.5"/>
  <rect x="640" y="290" width="28" height="20" rx="2" fill="none" stroke="#2DD4BF" stroke-width="1.5" opacity="0.7"/>
  <path d="M641 291 L654 303 L667 291" fill="none" stroke="#2DD4BF" stroke-width="1.5" opacity="0.7"/>
  <!-- Baseline -->
  <line x1="130" y1="380" x2="430" y2="380" stroke="#2DD4BF" stroke-width="1.5" opacity="0.3" stroke-linecap="round"/>
  <text x="400" y="430" text-anchor="middle" fill="#2DD4BF" font-family="sans-serif" font-size="14" opacity="0.6">Unlock 42% More Leads</text>
</svg>