<svg xmlns="http://www.w3.org/2000/svg" viewBox="0 0 800 450">
  <rect width="800" height="450" fill="#1a1a2e"/>
  <rect x="260" y="80" width="280" height="180" rx="10" fill="none" stroke="#2DD4BF" stroke-width="2.5"/>
  <path d="M260 92 L400 180 L540 92" fill="none" stroke="#2DD4BF" stroke-width="2" stroke-linecap="round"/>
  <path d="M310 140 L370 140" stroke="#F87171" stroke-width="2" stroke-dasharray="4 3" opacity="0.5"/>
  <path d="M310 160 L350 160" stroke="#F87171" stroke-width="2" stroke-dasharray="4 3" opacity="0.5"/>
  <circle cx="490" cy="120" r="25" fill="none" stroke="#F87171" stroke-width="2.5"/>
  <text x="490" y="128" text-anchor="middle" fill="#F87171" font-family="sans-serif" font-size="22" font-weight="bold">?</text>
  <path d="M400 270 L400 300" stroke="#2DD4BF" stroke-width="2" stroke-dasharray="4 3"/>
  <path d="M390 295 L400 305 L410 295" fill="none" stroke="#2DD4BF" stroke-width="2" stroke-linecap="round"/>
  <path d="M320 320 L400 320 L400 370 L320 370 Z" fill="none" stroke="#2DD4BF" stroke-width="2"/>
  <path d="M335 340 L350 355 L380 330" fill="none" stroke="#2DD4BF" stroke-width="3" stroke-linecap="round"/>
  <path d="M400 320 L480 320 L480 370 L400 370 Z" fill="none" stroke="#F87171" stroke-width="2"/>
  <line x1="420" y1="340" x2="460" y2="360" stroke="#F87171" stroke-width="2.5" stroke-linecap="round"/>
  <line x1="460" y1="340" x2="420" y2="360" stroke="#F87171" stroke-width="2.5" stroke-linecap="round"/>
  <text x="360" y="400" text-anchor="middle" fill="#2DD4BF" font-family="sans-serif" font-size="11" opacity="0.7">VALID</text>
  <text x="440" y="400" text-anchor="middle" fill="#F87171" font-family="sans-serif" font-size="11" opacity="0.7">RISKY</text>
  <circle cx="160" cy="150" r="3" fill="#F87171" opacity="0.4"/>
  <circle cx="650" cy="200" r="4" fill="#2DD4BF" opacity="0.4"/>
</svg>