<svg xmlns="http://www.w3.org/2000/svg" viewBox="0 0 800 450">
  <rect width="800" height="450" fill="#1a1a2e"/>
  <rect x="200" y="100" width="150" height="180" rx="8" fill="none" stroke="#2DD4BF" stroke-width="2" opacity="0.6"/>
  <rect x="325" y="100" width="150" height="180" rx="8" fill="none" stroke="#2DD4BF" stroke-width="3"/>
  <rect x="450" y="100" width="150" height="180" rx="8" fill="none" stroke="#2DD4BF" stroke-width="2" opacity="0.6"/>
  <circle cx="275" cy="140" r="15" fill="none" stroke="#F87171" stroke-width="2" opacity="0.5"/>
  <circle cx="400" cy="140" r="15" fill="none" stroke="#F87171" stroke-width="2.5"/>
  <path d="M392 140 L398 146 L410 134" fill="none" stroke="#F87171" stroke-width="2.5" stroke-linecap="round"/>
  <circle cx="525" cy="140" r="15" fill="none" stroke="#F87171" stroke-width="2" opacity="0.5"/>
  <path d="M225 170 L325 170" stroke="#2DD4BF" stroke-width="1" stroke-dasharray="3 3" opacity="0.3"/>
  <path d="M225 190 L310 190" stroke="#2DD4BF" stroke-width="1" stroke-dasharray="3 3" opacity="0.3"/>
  <path d="M225 210 L300 210" stroke="#2DD4BF" stroke-width="1" stroke-dasharray="3 3" opacity="0.3"/>
  <path d="M350 170 L450 170" stroke="#2DD4BF" stroke-width="1.5" stroke-dasharray="3 3" opacity="0.5"/>
  <path d="M350 190 L440 190" stroke="#2DD4BF" stroke-width="1.5" stroke-dasharray="3 3" opacity="0.5"/>
  <path d="M350 210 L430 210" stroke="#2DD4BF" stroke-width="1.5" stroke-dasharray="3 3" opacity="0.5"/>
  <path d="M475 170 L575 170" stroke="#2DD4BF" stroke-width="1" stroke-dasharray="3 3" opacity="0.3"/>
  <path d="M475 190 L560 190" stroke="#2DD4BF" stroke-width="1" stroke-dasharray="3 3" opacity="0.3"/>
  <path d="M475 210 L550 210" stroke="#2DD4BF" stroke-width="1" stroke-dasharray="3 3" opacity="0.3"/>
  <path d="M250 250 L275 240" stroke="#F87171" stroke-width="1.5" opacity="0.4"/>
  <path d="M370 250 L400 240" stroke="#F87171" stroke-width="2" opacity="0.7"/>
  <text x="400" y="245" text-anchor="middle" fill="#F87171" font-family="sans-serif" font-size="11">BEST</text>
  <path d="M500 250 L525 240" stroke="#F87171" stroke-width="1.5" opacity="0.4"/>
  <text x="400" y="340" text-anchor="middle" fill="#2DD4BF" font-family="sans-serif" font-size="18" font-weight="bold" opacity="0.9">Choose the Best Scrubbing Service</text>
</svg>