<svg xmlns="http://www.w3.org/2000/svg" viewBox="0 0 800 450">
  <rect width="800" height="450" fill="#1a1a2e"/>
  <circle cx="280" cy="180" r="70" fill="none" stroke="#2DD4BF" stroke-width="3"/>
  <text x="280" y="175" text-anchor="middle" fill="#2DD4BF" font-family="sans-serif" font-size="14" font-weight="bold">SCRUBBY</text>
  <path d="M270 195 L290 195" stroke="#2DD4BF" stroke-width="2" stroke-linecap="round" opacity="0.6"/>
  <circle cx="520" cy="180" r="70" fill="none" stroke="#F87171" stroke-width="3"/>
  <text x="520" y="175" text-anchor="middle" fill="#F87171" font-family="sans-serif" font-size="14" font-weight="bold">BOUNCER</text>
  <path d="M510 195 L530 195" stroke="#F87171" stroke-width="2" stroke-linecap="round" opacity="0.6"/>
  <path d="M355 180 L445 180" stroke="#2DD4BF" stroke-width="2" stroke-dasharray="8 4"/>
  <path d="M430 172 L445 180 L430 188" fill="none" stroke="#2DD4BF" stroke-width="2" stroke-linecap="round"/>
  <path d="M370 172 L355 180 L370 188" fill="none" stroke="#F87171" stroke-width="2" stroke-linecap="round"/>
  <path d="M400 160 L400 140 Q400 120 420 120 L440 120" fill="none" stroke="#F87171" stroke-width="2" stroke-dasharray="4 3" opacity="0.5"/>
  <circle cx="448" cy="120" r="5" fill="#F87171" opacity="0.5"/>
  <path d="M400 200 L400 220 Q400 240 380 240 L360 240" fill="none" stroke="#2DD4BF" stroke-width="2" stroke-dasharray="4 3" opacity="0.5"/>
  <circle cx="352" cy="240" r="5" fill="#2DD4BF" opacity="0.5"/>
  <path d="M340 300 L460 300 L460 340 L340 340 Z" fill="none" stroke="#2DD4BF" stroke-width="2" rx="5"/>
  <path d="M365 315 L385 325 L415 308" fill="none" stroke="#F87171" stroke-width="2.5" stroke-linecap="round"/>
  <text x="400" y="390" text-anchor="middle" fill="#2DD4BF" font-family="sans-serif" font-size="18" font-weight="bold" opacity="0.9">Scrubby + Bouncer Integration</text>
</svg>