<svg xmlns="http://www.w3.org/2000/svg" viewBox="0 0 800 450">
  <rect width="800" height="450" fill="#1a1a2e"/>
  <path d="M300 100 L500 100 L500 250 L300 250 Z" fill="none" stroke="#2DD4BF" stroke-width="3" stroke-linejoin="round"/>
  <path d="M300 100 L400 170 L500 100" fill="none" stroke="#2DD4BF" stroke-width="2.5"/>
  <line x1="350" y1="160" x2="450" y2="160" stroke="#2DD4BF" stroke-width="1.5" stroke-dasharray="4 3" opacity="0.4"/>
  <line x1="360" y1="180" x2="440" y2="180" stroke="#2DD4BF" stroke-width="1.5" stroke-dasharray="4 3" opacity="0.4"/>
  <rect x="340" y="270" width="120" height="80" rx="8" fill="none" stroke="#F87171" stroke-width="2.5"/>
  <line x1="360" y1="290" x2="380" y2="310" stroke="#F87171" stroke-width="3" stroke-linecap="round"/>
  <line x1="380" y1="290" x2="360" y2="310" stroke="#F87171" stroke-width="3" stroke-linecap="round"/>
  <line x1="400" y1="290" x2="440" y2="290" stroke="#2DD4BF" stroke-width="1.5" stroke-dasharray="3 3" opacity="0.5"/>
  <line x1="400" y1="310" x2="430" y2="310" stroke="#2DD4BF" stroke-width="1.5" stroke-dasharray="3 3" opacity="0.5"/>
  <path d="M400 250 L400 270" stroke="#F87171" stroke-width="2" stroke-dasharray="3 2"/>
  <path d="M385 258 L400 268 L415 258" fill="none" stroke="#F87171" stroke-width="2" stroke-linecap="round"/>
  <path d="M550 140 L580 140 L580 200 L550 200 Z" fill="none" stroke="#2DD4BF" stroke-width="2" opacity="0.5"/>
  <path d="M555 155 L575 155" stroke="#2DD4BF" stroke-width="1.5" opacity="0.4"/>
  <path d="M555 170 L575 170" stroke="#F87171" stroke-width="1.5" opacity="0.4"/>
  <path d="M555 185 L570 185" stroke="#2DD4BF" stroke-width="1.5" opacity="0.4"/>
  <circle cx="565" cy="140" r="12" fill="none" stroke="#F87171" stroke-width="2"/>
  <path d="M560 140 L565 145 L572 136" fill="none" stroke="#F87171" stroke-width="2" stroke-linecap="round"/>
  <text x="400" y="400" text-anchor="middle" fill="#2DD4BF" font-family="sans-serif" font-size="20" font-weight="bold" opacity="0.9">How Spam Filters Work</text>
</svg>