<svg xmlns="http://www.w3.org/2000/svg" viewBox="0 0 800 450">
  <rect width="800" height="450" fill="#1a1a2e"/>
  <text x="400" y="160" text-anchor="middle" fill="#F87171" font-family="sans-serif" font-size="90" font-weight="bold" opacity="0.9">2X</text>
  <path d="M280 180 Q400 210 520 180" fill="none" stroke="#2DD4BF" stroke-width="2" stroke-dasharray="6 4" opacity="0.5"/>
  <rect x="250" y="210" width="300" height="80" rx="10" fill="none" stroke="#2DD4BF" stroke-width="2.5"/>
  <path d="M250 222 L400 260 L550 222" fill="none" stroke="#2DD4BF" stroke-width="2" stroke-linecap="round" opacity="0.6"/>
  <path d="M280 250 L350 250" stroke="#2DD4BF" stroke-width="1.5" stroke-dasharray="3 3" opacity="0.4"/>
  <path d="M280 265 L330 265" stroke="#2DD4BF" stroke-width="1.5" stroke-dasharray="3 3" opacity="0.4"/>
  <path d="M580 140 L620 140 L620 200 L580 200 Z" fill="none" stroke="#F87171" stroke-width="2" opacity="0.5"/>
  <text x="600" y="175" text-anchor="middle" fill="#F87171" font-family="sans-serif" font-size="18" opacity="0.7">20%</text>
  <path d="M570 175 L555 175" stroke="#F87171" stroke-width="1.5" stroke-linecap="round" opacity="0.4"/>
  <path d="M200 200 L210 180 L220 210 L230 170 L240 200" fill="none" stroke="#2DD4BF" stroke-width="2" stroke-linecap="round" opacity="0.5"/>
  <circle cx="240" cy="200" r="4" fill="#2DD4BF" opacity="0.5"/>
  <text x="400" y="340" text-anchor="middle" fill="#2DD4BF" font-family="sans-serif" font-size="19" font-weight="bold" opacity="0.9">2X Revenue with Cold Email</text>
  <text x="400" y="370" text-anchor="middle" fill="#F87171" font-family="sans-serif" font-size="14" opacity="0.7">Achieve a 20% Reply Rate</text>
</svg>