<svg xmlns="http://www.w3.org/2000/svg" viewBox="0 0 800 450">
  <rect width="800" height="450" fill="#1a1a2e"/>
  <rect x="250" y="80" width="300" height="200" rx="12" fill="none" stroke="#2DD4BF" stroke-width="2.5"/>
  <path d="M250 92 L400 180 L550 92" fill="none" stroke="#2DD4BF" stroke-width="2" stroke-linecap="round"/>
  <path d="M300 195 L380 195" stroke="#2DD4BF" stroke-width="1.5" stroke-dasharray="4 3" opacity="0.4"/>
  <path d="M300 215 L360 215" stroke="#2DD4BF" stroke-width="1.5" stroke-dasharray="4 3" opacity="0.4"/>
  <path d="M300 235 L400 235" stroke="#2DD4BF" stroke-width="1.5" stroke-dasharray="4 3" opacity="0.4"/>
  <circle cx="580" cy="160" r="40" fill="none" stroke="#F87171" stroke-width="2.5"/>
  <path d="M560 160 Q580 140 600 160 Q580 185 560 160 Z" fill="none" stroke="#F87171" stroke-width="2"/>
  <circle cx="580" cy="155" r="10" fill="none" stroke="#F87171" stroke-width="1.5"/>
  <path d="M575 225 L585 215 L595 225" fill="none" stroke="#2DD4BF" stroke-width="2" stroke-linecap="round" opacity="0.5"/>
  <path d="M570 235 L600 235" stroke="#2DD4BF" stroke-width="1.5" opacity="0.4"/>
  <text x="585" y="255" text-anchor="middle" fill="#2DD4BF" font-family="sans-serif" font-size="10" opacity="0.6">READ</text>
  <circle cx="200" cy="180" r="4" fill="#F87171" opacity="0.4"/>
  <circle cx="170" cy="140" r="3" fill="#2DD4BF" opacity="0.4"/>
  <text x="400" y="340" text-anchor="middle" fill="#2DD4BF" font-family="sans-serif" font-size="18" font-weight="bold" opacity="0.9">Track Email Read Receipts</text>
  <text x="400" y="368" text-anchor="middle" fill="#F87171" font-family="sans-serif" font-size="14" opacity="0.7">in Outlook</text>
</svg>