<svg xmlns="http://www.w3.org/2000/svg" viewBox="0 0 800 450">
  <rect width="800" height="450" fill="#1a1a2e"/>
  <rect x="250" y="80" width="180" height="220" rx="8" fill="none" stroke="#2DD4BF" stroke-width="2.5"/>
  <path d="M275 120 L310 120" stroke="#2DD4BF" stroke-width="1.5" stroke-dasharray="3 3" opacity="0.5"/>
  <path d="M275 145 L320 145" stroke="#F87171" stroke-width="1.5" stroke-dasharray="3 3" opacity="0.5"/>
  <path d="M275 170 L305 170" stroke="#2DD4BF" stroke-width="1.5" stroke-dasharray="3 3" opacity="0.5"/>
  <path d="M275 195 L330 195" stroke="#F87171" stroke-width="1.5" stroke-dasharray="3 3" opacity="0.5"/>
  <path d="M275 220 L310 220" stroke="#2DD4BF" stroke-width="1.5" stroke-dasharray="3 3" opacity="0.5"/>
  <path d="M275 245 L300 245" stroke="#F87171" stroke-width="1.5" stroke-dasharray="3 3" opacity="0.5"/>
  <path d="M450 120 L510 120 Q540 120 540 140 L540 260 Q540 280 510 280 L470 280" fill="none" stroke="#2DD4BF" stroke-width="2" stroke-dasharray="6 4"/>
  <path d="M480 272 L470 280 L480 288" fill="none" stroke="#2DD4BF" stroke-width="2" stroke-linecap="round"/>
  <line x1="340" y1="145" x2="440" y2="145" stroke="#F87171" stroke-width="2" stroke-linecap="round"/>
  <line x1="340" y1="195" x2="440" y2="195" stroke="#F87171" stroke-width="2" stroke-linecap="round"/>
  <line x1="340" y1="245" x2="440" y2="245" stroke="#F87171" stroke-width="2" stroke-linecap="round"/>
  <path d="M385 138 L395 148 L405 128" fill="none" stroke="#2DD4BF" stroke-width="2" stroke-linecap="round" opacity="0.6"/>
  <circle cx="580" cy="180" r="50" fill="none" stroke="#2DD4BF" stroke-width="2" opacity="0.4"/>
  <path d="M560 200 L580 150 L600 200" fill="none" stroke="#F87171" stroke-width="2.5" stroke-linecap="round"/>
  <path d="M565 190 L595 190" stroke="#F87171" stroke-width="2" stroke-linecap="round"/>
  <path d="M620 160 L640 140" stroke="#2DD4BF" stroke-width="1.5" stroke-linecap="round" opacity="0.4"/>
  <text x="400" y="350" text-anchor="middle" fill="#2DD4BF" font-family="sans-serif" font-size="18" font-weight="bold" opacity="0.9">Clean Your Email List</text>
  <text x="400" y="378" text-anchor="middle" fill="#F87171" font-family="sans-serif" font-size="14" opacity="0.7">Minimize Bounce Rates</text>
</svg>