<svg xmlns="http://www.w3.org/2000/svg" viewBox="0 0 800 450">
  <rect width="800" height="450" fill="#1a1a2e"/>
  <path d="M200 300 L300 300 L300 200 L350 200 L350 240 L400 240 L400 180 L450 180 L450 220 L500 220 L500 140 L550 140 L550 170 L600 170 L600 100" fill="none" stroke="#2DD4BF" stroke-width="3" stroke-linecap="round" stroke-linejoin="round"/>
  <circle cx="600" cy="100" r="6" fill="#F87171"/>
  <path d="M580 85 L600 100 L620 85" fill="none" stroke="#F87171" stroke-width="2" stroke-linecap="round"/>
  <text x="615" y="95" fill="#F87171" font-family="sans-serif" font-size="14" font-weight="bold">$</text>
  <path d="M200 310 L600 310" stroke="#2DD4BF" stroke-width="1.5" opacity="0.3"/>
  <path d="M200 300 L200 100" stroke="#2DD4BF" stroke-width="1.5" opacity="0.3"/>
  <rect x="250" y="120" width="120" height="60" rx="6" fill="none" stroke="#F87171" stroke-width="2" stroke-dasharray="5 3" opacity="0.6"/>
  <text x="310" y="147" text-anchor="middle" fill="#F87171" font-family="sans-serif" font-size="11" opacity="0.8">RISKY</text>
  <path d="M305 158 L315 158" stroke="#F87171" stroke-width="1.5" stroke-linecap="round" opacity="0.6"/>
  <path d="M375 120 L410 95" fill="none" stroke="#2DD4BF" stroke-width="1.5" stroke-dasharray="4 3" opacity="0.5"/>
  <path d="M405 88 L410 95 L402 98" fill="none" stroke="#2DD4BF" stroke-width="1.5" stroke-linecap="round" opacity="0.5"/>
  <text x="400" y="370" text-anchor="middle" fill="#2DD4BF" font-family="sans-serif" font-size="18" font-weight="bold" opacity="0.9">Leadfly.ai: Risky Emails to Revenue</text>
  <text x="400" y="395" text-anchor="middle" fill="#F87171" font-family="sans-serif" font-size="13" opacity="0.7">11-25% deliverability increase</text>
</svg>