<svg viewBox="0 0 800 450" xmlns="http://www.w3.org/2000/svg">
  <rect width="800" height="450" fill="#1a1a2e"/>
  <!-- Left puzzle piece -->
  <path d="M150 140 L280 140 L280 170 C295 170 295 200 280 200 L280 280 L150 280 L150 200 C135 200 135 170 150 170 Z" fill="none" stroke="#F87171" stroke-width="2.5" stroke-linecap="round" stroke-linejoin="round"/>
  <text x="215" y="220" text-anchor="middle" fill="#F87171" font-family="sans-serif" font-size="13" opacity="0.8">MV</text>
  <!-- Right puzzle piece -->
  <path d="M290 140 L420 140 L420 170 C435 170 435 200 420 200 L420 280 L290 280 L290 200 C305 200 305 170 290 170 Z" fill="none" stroke="#2DD4BF" stroke-width="2.5" stroke-linecap="round" stroke-linejoin="round"/>
  <text x="355" y="220" text-anchor="middle" fill="#2DD4BF" font-family="sans-serif" font-size="13" opacity="0.8">Scrubby</text>
  <!-- Connection spark lines -->
  <line x1="282" y1="185" x2="288" y2="185" stroke="#F87171" stroke-width="2" opacity="0.8"/>
  <circle cx="285" cy="185" r="4" fill="none" stroke="#2DD4BF" stroke-width="1.5" opacity="0.6"/>
  <!-- Arrow pointing to result -->
  <line x1="440" y1="210" x2="510" y2="210" stroke="#2DD4BF" stroke-width="2" stroke-dasharray="6,4" stroke-linecap="round"/>
  <path d="M500 200 L515 210 L500 220" fill="none" stroke="#2DD4BF" stroke-width="2" stroke-linecap="round"/>
  <!-- Result: verified list icon -->
  <rect x="530" y="160" width="130" height="100" rx="6" fill="none" stroke="#2DD4BF" stroke-width="2.5" stroke-linecap="round"/>
  <line x1="555" y1="190" x2="620" y2="190" stroke="#2DD4BF" stroke-width="1.5" stroke-linecap="round" opacity="0.6"/>
  <line x1="555" y1="210" x2="640" y2="210" stroke="#2DD4BF" stroke-width="1.5" stroke-linecap="round" opacity="0.6"/>
  <line x1="555" y1="230" x2="610" y2="230" stroke="#2DD4BF" stroke-width="1.5" stroke-linecap="round" opacity="0.6"/>
  <!-- Checkmarks -->
  <path d="M543 188 L548 193 L556 183" fill="none" stroke="#F87171" stroke-width="2" stroke-linecap="round"/>
  <path d="M543 208 L548 213 L556 203" fill="none" stroke="#F87171" stroke-width="2" stroke-linecap="round"/>
  <path d="M543 228 L548 233 L556 223" fill="none" stroke="#F87171" stroke-width="2" stroke-linecap="round"/>
  <!-- Decorative dots -->
  <circle cx="200" cy="340" r="3" fill="#F87171" opacity="0.3"/>
  <circle cx="350" cy="350" r="3" fill="#2DD4BF" opacity="0.3"/>
  <circle cx="500" cy="330" r="3" fill="#F87171" opacity="0.3"/>
  <circle cx="600" cy="345" r="3" fill="#2DD4BF" opacity="0.3"/>
  <text x="400" y="410" text-anchor="middle" fill="#2DD4BF" font-family="sans-serif" font-size="14" opacity="0.6">MillionVerifier + Scrubby Integration</text>
</svg>