<svg viewBox="0 0 800 450" xmlns="http://www.w3.org/2000/svg">
  <rect width="800" height="450" fill="#1a1a2e"/>
  <!-- Grid of email service icons (sketchy envelopes) -->
  <rect x="120" y="80" width="80" height="55" rx="4" fill="none" stroke="#2DD4BF" stroke-width="2" stroke-linecap="round"/>
  <path d="M122 82 L160 112 L198 82" fill="none" stroke="#2DD4BF" stroke-width="1.5" stroke-linecap="round"/>
  <text x="160" y="155" text-anchor="middle" fill="#2DD4BF" font-family="sans-serif" font-size="10" opacity="0.5">Gmail</text>
  <rect x="250" y="80" width="80" height="55" rx="4" fill="none" stroke="#F87171" stroke-width="2" stroke-linecap="round"/>
  <path d="M252 82 L290 112 L328 82" fill="none" stroke="#F87171" stroke-width="1.5" stroke-linecap="round"/>
  <text x="290" y="155" text-anchor="middle" fill="#F87171" font-family="sans-serif" font-size="10" opacity="0.5">Outlook</text>
  <rect x="380" y="80" width="80" height="55" rx="4" fill="none" stroke="#2DD4BF" stroke-width="2" stroke-linecap="round"/>
  <path d="M382 82 L420 112 L458 82" fill="none" stroke="#2DD4BF" stroke-width="1.5" stroke-linecap="round"/>
  <text x="420" y="155" text-anchor="middle" fill="#2DD4BF" font-family="sans-serif" font-size="10" opacity="0.5">Yahoo</text>
  <rect x="510" y="80" width="80" height="55" rx="4" fill="none" stroke="#F87171" stroke-width="2" stroke-linecap="round"/>
  <path d="M512 82 L550 112 L588 82" fill="none" stroke="#F87171" stroke-width="1.5" stroke-linecap="round"/>
  <text x="550" y="155" text-anchor="middle" fill="#F87171" font-family="sans-serif" font-size="10" opacity="0.5">Proton</text>
  <rect x="185" y="190" width="80" height="55" rx="4" fill="none" stroke="#F87171" stroke-width="2" stroke-linecap="round"/>
  <path d="M187 192 L225 222 L263 192" fill="none" stroke="#F87171" stroke-width="1.5" stroke-linecap="round"/>
  <text x="225" y="265" text-anchor="middle" fill="#F87171" font-family="sans-serif" font-size="10" opacity="0.5">Zoho</text>
  <rect x="315" y="190" width="80" height="55" rx="4" fill="none" stroke="#2DD4BF" stroke-width="2" stroke-linecap="round"/>
  <path d="M317 192 L355 222 L393 192" fill="none" stroke="#2DD4BF" stroke-width="1.5" stroke-linecap="round"/>
  <text x="355" y="265" text-anchor="middle" fill="#2DD4BF" font-family="sans-serif" font-size="10" opacity="0.5">GMX</text>
  <rect x="445" y="190" width="80" height="55" rx="4" fill="none" stroke="#F87171" stroke-width="2" stroke-linecap="round"/>
  <path d="M447 192 L485 222 L523 192" fill="none" stroke="#F87171" stroke-width="1.5" stroke-linecap="round"/>
  <text x="485" y="265" text-anchor="middle" fill="#F87171" font-family="sans-serif" font-size="10" opacity="0.5">Tutanota</text>
  <!-- FREE tag -->
  <rect x="310" y="310" width="180" height="50" rx="8" fill="none" stroke="#2DD4BF" stroke-width="3" stroke-linecap="round"/>
  <text x="400" y="342" text-anchor="middle" fill="#2DD4BF" font-family="sans-serif" font-size="22" font-weight="bold" opacity="0.8">FREE</text>
  <!-- Decorative squiggly line -->
  <path d="M150 400 L180 395 L210 405 L240 395 L270 405 L300 395 L330 405 L360 395 L390 405 L420 395 L450 405 L480 395 L510 405 L540 395 L570 405 L600 395 L630 405" fill="none" stroke="#F87171" stroke-width="1" opacity="0.3" stroke-linecap="round"/>
  <text x="400" y="435" text-anchor="middle" fill="#2DD4BF" font-family="sans-serif" font-size="14" opacity="0.6">Free Email Services</text>
</svg>