<svg viewBox="0 0 800 450" xmlns="http://www.w3.org/2000/svg">
  <rect width="800" height="450" fill="#1a1a2e"/>
  <!-- Central circle with arrows radiating out -->
  <circle cx="400" cy="200" r="60" fill="none" stroke="#F87171" stroke-width="2.5" stroke-linecap="round" stroke-dasharray="8,4"/>
  <text x="400" y="205" text-anchor="middle" fill="#F87171" font-family="sans-serif" font-size="13" opacity="0.7">Mailgun</text>
  <!-- X mark over center -->
  <line x1="380" y1="220" x2="420" y2="260" stroke="#F87171" stroke-width="2" stroke-linecap="round" opacity="0.5"/>
  <line x1="420" y1="220" x2="380" y2="260" stroke="#F87171" stroke-width="2" stroke-linecap="round" opacity="0.5"/>
  <!-- Alternative boxes radiating out -->
  <line x1="340" y1="170" x2="220" y2="110" stroke="#2DD4BF" stroke-width="1.5" stroke-linecap="round" opacity="0.6"/>
  <rect x="140" y="80" width="85" height="40" rx="5" fill="none" stroke="#2DD4BF" stroke-width="2.5" stroke-linecap="round"/>
  <text x="182" y="105" text-anchor="middle" fill="#2DD4BF" font-family="sans-serif" font-size="11" opacity="0.8">Scrubby</text>
  <line x1="460" y1="170" x2="580" y2="110" stroke="#2DD4BF" stroke-width="1.5" stroke-linecap="round" opacity="0.6"/>
  <rect x="555" y="80" width="85" height="40" rx="5" fill="none" stroke="#2DD4BF" stroke-width="2" stroke-linecap="round"/>
  <line x1="340" y1="230" x2="200" y2="310" stroke="#2DD4BF" stroke-width="1.5" stroke-linecap="round" opacity="0.6"/>
  <rect x="130" y="290" width="85" height="40" rx="5" fill="none" stroke="#2DD4BF" stroke-width="2" stroke-linecap="round"/>
  <line x1="460" y1="230" x2="600" y2="310" stroke="#2DD4BF" stroke-width="1.5" stroke-linecap="round" opacity="0.6"/>
  <rect x="565" y="290" width="85" height="40" rx="5" fill="none" stroke="#2DD4BF" stroke-width="2" stroke-linecap="round"/>
  <!-- Star on Scrubby box -->
  <path d="M230 88 L233 94 L240 94 L234 99 L236 106 L230 102 L224 106 L226 99 L220 94 L227 94 Z" fill="#2DD4BF" opacity="0.5"/>
  <!-- Envelope flying -->
  <rect x="350" y="350" width="40" height="28" rx="3" fill="none" stroke="#F87171" stroke-width="2" stroke-linecap="round" opacity="0.5"/>
  <path d="M351 351 L370 368 L389 351" fill="none" stroke="#F87171" stroke-width="1.5" stroke-linecap="round" opacity="0.5"/>
  <text x="400" y="425" text-anchor="middle" fill="#2DD4BF" font-family="sans-serif" font-size="14" opacity="0.6">Mailgun Alternatives</text>
</svg>