<svg viewBox="0 0 800 450" xmlns="http://www.w3.org/2000/svg">
  <rect width="800" height="450" fill="#1a1a2e"/>
  <g transform="translate(400,200)">
    <path d="M-20,-80 L0,-60 L20,-80 L10,-55 L30,-40 L5,-40 L0,-15 L-5,-40 L-30,-40 L-10,-55Z" fill="#2DD4BF" opacity="0.8"/>
    <path d="M50,-70 L65,-55 L80,-70 L73,-50 L88,-40 L68,-40 L65,-20 L62,-40 L42,-40 L57,-50Z" fill="#F87171" opacity="0.7"/>
    <path d="M-80,-70 L-65,-55 L-50,-70 L-57,-50 L-42,-40 L-62,-40 L-65,-20 L-68,-40 L-88,-40 L-73,-50Z" fill="#F87171" opacity="0.7"/>
    <path d="M110,-55 L120,-45 L130,-55 L126,-42 L136,-35 L123,-35 L120,-22 L117,-35 L104,-35 L114,-42Z" fill="#2DD4BF" opacity="0.5"/>
    <path d="M-130,-55 L-120,-45 L-110,-55 L-114,-42 L-104,-35 L-117,-35 L-120,-22 L-123,-35 L-136,-35 L-126,-42Z" fill="#2DD4BF" opacity="0.5"/>
  </g>
  <text x="400" y="200" text-anchor="middle" fill="#fff" font-family="sans-serif" font-size="48" font-weight="bold" opacity="0.9">82%</text>
  <text x="400" y="230" text-anchor="middle" fill="#2DD4BF" font-family="sans-serif" font-size="14" opacity="0.7">satisfaction rate</text>
  <rect x="200" y="270" width="120" height="8" rx="4" fill="#2DD4BF" opacity="0.3"/>
  <rect x="200" y="270" width="100" height="8" rx="4" fill="#2DD4BF" opacity="0.7"/>
  <rect x="340" y="270" width="120" height="8" rx="4" fill="#F87171" opacity="0.3"/>
  <rect x="340" y="270" width="95" height="8" rx="4" fill="#F87171" opacity="0.7"/>
  <rect x="480" y="270" width="120" height="8" rx="4" fill="#2DD4BF" opacity="0.3"/>
  <rect x="480" y="270" width="110" height="8" rx="4" fill="#2DD4BF" opacity="0.7"/>
  <text x="400" y="350" text-anchor="middle" fill="#2DD4BF" font-family="sans-serif" font-size="20" font-weight="bold" opacity="0.9">Customer Satisfaction</text>
  <text x="400" y="378" text-anchor="middle" fill="#F87171" font-family="sans-serif" font-size="13" opacity="0.7">Users Celebrate Excellence</text>
</svg>