<svg viewBox="0 0 800 450" xmlns="http://www.w3.org/2000/svg">
  <rect width="800" height="450" fill="#1a1a2e"/>
  <path d="M250 130 Q255 125 350 128 Q445 125 450 130 L460 240 Q455 248 350 245 Q245 248 240 240Z" fill="none" stroke="#2DD4BF" stroke-width="2.5" opacity="0.7" stroke-linejoin="round"/>
  <path d="M270 160 L280 170 L295 155" stroke="#2DD4BF" stroke-width="2" fill="none" stroke-linecap="round" opacity="0.8"/>
  <line x1="310" y1="163" x2="430" y2="163" stroke="#2DD4BF" stroke-width="1.5" opacity="0.4"/>
  <path d="M270 190 L280 200 L295 185" stroke="#2DD4BF" stroke-width="2" fill="none" stroke-linecap="round" opacity="0.8"/>
  <line x1="310" y1="193" x2="420" y2="193" stroke="#2DD4BF" stroke-width="1.5" opacity="0.4"/>
  <path d="M270 220 L280 230 L295 215" stroke="#2DD4BF" stroke-width="2" fill="none" stroke-linecap="round" opacity="0.8"/>
  <line x1="310" y1="223" x2="410" y2="223" stroke="#2DD4BF" stroke-width="1.5" opacity="0.4"/>
  <path d="M520 120 L540 110 L560 120 L555 140 L565 155 L540 148 L515 155 L525 140Z" fill="none" stroke="#F87171" stroke-width="2" opacity="0.8"/>
  <path d="M580 150 L595 142 L610 150 L606 165 L614 175 L595 170 L576 175 L584 165Z" fill="none" stroke="#F87171" stroke-width="2" opacity="0.6"/>
  <path d="M540 170 L552 163 L564 170 L561 182 L568 190 L552 186 L536 190 L543 182Z" fill="none" stroke="#2DD4BF" stroke-width="2" opacity="0.6"/>
  <path d="M590 185 L600 179 L610 185 L607 195 L613 202 L600 198 L587 202 L593 195Z" fill="none" stroke="#2DD4BF" stroke-width="1.5" opacity="0.5"/>
  <path d="M555 200 L563 195 L571 200 L569 208 L574 213 L563 210 L552 213 L557 208Z" fill="none" stroke="#F87171" stroke-width="1.5" opacity="0.5"/>
  <path d="M200 300 Q210 280 230 300 Q240 310 260 290 Q280 270 300 295" stroke="#2DD4BF" stroke-width="2" fill="none" opacity="0.4" stroke-linecap="round"/>
  <path d="M500 300 Q510 280 530 300 Q540 310 560 290 Q580 270 600 295" stroke="#F87171" stroke-width="2" fill="none" opacity="0.4" stroke-linecap="round"/>
  <text x="400" y="360" text-anchor="middle" fill="#2DD4BF" font-family="sans-serif" font-size="20" font-weight="bold" opacity="0.9">Center Stage on G2</text>
  <text x="400" y="390" text-anchor="middle" fill="#F87171" font-family="sans-serif" font-size="13" opacity="0.7">Real Customer Reviews</text>
</svg>