<svg viewBox="0 0 800 450" xmlns="http://www.w3.org/2000/svg">
  <rect width="800" height="450" fill="#1a1a2e"/>
  <circle cx="280" cy="190" r="60" fill="none" stroke="#2DD4BF" stroke-width="2.5" opacity="0.7" stroke-dasharray="5 3"/>
  <text x="280" y="195" text-anchor="middle" fill="#2DD4BF" font-family="sans-serif" font-size="14" font-weight="bold" opacity="0.9">Scrubby</text>
  <circle cx="520" cy="190" r="60" fill="none" stroke="#F87171" stroke-width="2.5" opacity="0.7" stroke-dasharray="5 3"/>
  <text x="520" y="195" text-anchor="middle" fill="#F87171" font-family="sans-serif" font-size="14" font-weight="bold" opacity="0.9">HubSpot</text>
  <path d="M345 185 Q370 175 395 190 Q370 205 345 195" stroke="#2DD4BF" stroke-width="2" fill="none" stroke-linecap="round" opacity="0.6"/>
  <path d="M395 185 Q420 175 455 190 Q420 205 395 195" stroke="#F87171" stroke-width="2" fill="none" stroke-linecap="round" opacity="0.6"/>
  <path d="M375 180 L400 190 L375 200" stroke="#fff" stroke-width="2" fill="none" stroke-linecap="round" opacity="0.5"/>
  <path d="M425 180 L400 190 L425 200" stroke="#fff" stroke-width="2" fill="none" stroke-linecap="round" opacity="0.5"/>
  <rect x="200" y="280" width="400" height="60" rx="8" fill="none" stroke="#2DD4BF" stroke-width="1.5" opacity="0.4" stroke-dasharray="4 3"/>
  <line x1="230" y1="300" x2="290" y2="300" stroke="#2DD4BF" stroke-width="2" opacity="0.5"/>
  <line x1="300" y1="300" x2="340" y2="300" stroke="#F87171" stroke-width="2" opacity="0.5"/>
  <path d="M350 295 L355 305 L365 290" stroke="#2DD4BF" stroke-width="2" fill="none" stroke-linecap="round" opacity="0.7"/>
  <line x1="380" y1="300" x2="440" y2="300" stroke="#2DD4BF" stroke-width="2" opacity="0.5"/>
  <line x1="450" y1="300" x2="490" y2="300" stroke="#F87171" stroke-width="2" opacity="0.5"/>
  <path d="M500 295 L505 305 L515 290" stroke="#2DD4BF" stroke-width="2" fill="none" stroke-linecap="round" opacity="0.7"/>
  <line x1="530" y1="300" x2="570" y2="300" stroke="#2DD4BF" stroke-width="2" opacity="0.5"/>
  <line x1="230" y1="320" x2="570" y2="320" stroke="#2DD4BF" stroke-width="1" opacity="0.2"/>
  <text x="400" y="390" text-anchor="middle" fill="#2DD4BF" font-family="sans-serif" font-size="20" font-weight="bold" opacity="0.9">HubSpot Integration</text>
  <text x="400" y="416" text-anchor="middle" fill="#F87171" font-family="sans-serif" font-size="13" opacity="0.7">Validate Emails in Your CRM</text>
</svg>