<svg viewBox="0 0 800 450" xmlns="http://www.w3.org/2000/svg">
  <rect width="800" height="450" fill="#1a1a2e"/>
  <path d="M200 225 Q210 120 300 150 Q390 180 400 225 Q410 270 300 300 Q210 330 200 225Z" fill="none" stroke="#2DD4BF" stroke-width="2.5" opacity="0.7" stroke-dasharray="5 3"/>
  <path d="M400 225 Q410 120 500 150 Q590 180 600 225 Q610 270 500 300 Q410 330 400 225Z" fill="none" stroke="#F87171" stroke-width="2.5" opacity="0.7" stroke-dasharray="5 3"/>
  <path d="M340 170 Q370 160 400 170 Q430 180 400 225 Q370 270 340 280 Q310 270 340 225 Q370 180 340 170Z" fill="#2DD4BF" opacity="0.08"/>
  <text x="280" y="230" text-anchor="middle" fill="#2DD4BF" font-family="sans-serif" font-size="14" opacity="0.8">Scrubby</text>
  <text x="520" y="230" text-anchor="middle" fill="#F87171" font-family="sans-serif" font-size="14" opacity="0.8">ZeroBounce</text>
  <path d="M380 210 L385 220 L395 205" stroke="#fff" stroke-width="2" fill="none" stroke-linecap="round" opacity="0.6"/>
  <path d="M405 235 L410 245 L420 230" stroke="#fff" stroke-width="2" fill="none" stroke-linecap="round" opacity="0.6"/>
  <circle cx="250" cy="190" r="4" fill="#2DD4BF" opacity="0.5"/>
  <circle cx="270" cy="260" r="3" fill="#2DD4BF" opacity="0.4"/>
  <circle cx="310" cy="200" r="3.5" fill="#2DD4BF" opacity="0.45"/>
  <circle cx="550" cy="190" r="4" fill="#F87171" opacity="0.5"/>
  <circle cx="530" cy="260" r="3" fill="#F87171" opacity="0.4"/>
  <circle cx="490" cy="200" r="3.5" fill="#F87171" opacity="0.45"/>
  <path d="M150 380 Q250 360 400 370 Q550 380 650 365" stroke="#2DD4BF" stroke-width="1.5" fill="none" opacity="0.3" stroke-dasharray="4 4"/>
  <text x="400" y="370" text-anchor="middle" fill="#2DD4BF" font-family="sans-serif" font-size="20" font-weight="bold" opacity="0.9">Strategic Email Campaigns</text>
  <text x="400" y="398" text-anchor="middle" fill="#F87171" font-family="sans-serif" font-size="13" opacity="0.7">Verification + Validation Combined</text>
</svg>