<svg viewBox="0 0 800 450" xmlns="http://www.w3.org/2000/svg">
  <rect width="800" height="450" fill="#1a1a2e"/>
  <rect x="200" y="80" width="400" height="260" rx="10" fill="none" stroke="#2DD4BF" stroke-width="2.5" opacity="0.6"/>
  <path d="M200 80 L400 200 L600 80" stroke="#2DD4BF" stroke-width="2.5" fill="none" stroke-linecap="round" opacity="0.8"/>
  <path d="M200 340 L340 230" stroke="#2DD4BF" stroke-width="1.5" fill="none" opacity="0.3"/>
  <path d="M600 340 L460 230" stroke="#2DD4BF" stroke-width="1.5" fill="none" opacity="0.3"/>
  <circle cx="160" cy="160" r="8" fill="#F87171" opacity="0.6"/>
  <path d="M160 160 Q140 140 170 130 Q200 120 180 150" stroke="#F87171" stroke-width="1.5" fill="none" opacity="0.4"/>
  <circle cx="640" cy="140" r="8" fill="#F87171" opacity="0.6"/>
  <path d="M640 140 Q660 120 650 150 Q640 180 620 160" stroke="#F87171" stroke-width="1.5" fill="none" opacity="0.4"/>
  <circle cx="140" cy="280" r="6" fill="#2DD4BF" opacity="0.5"/>
  <path d="M140 280 Q120 260 150 255" stroke="#2DD4BF" stroke-width="1.5" fill="none" opacity="0.3"/>
  <circle cx="660" cy="260" r="6" fill="#2DD4BF" opacity="0.5"/>
  <circle cx="680" cy="300" r="5" fill="#F87171" opacity="0.4"/>
  <circle cx="120" cy="200" r="5" fill="#F87171" opacity="0.4"/>
  <line x1="290" y1="250" x2="420" y2="250" stroke="#2DD4BF" stroke-width="1.5" opacity="0.3" stroke-dasharray="3 2"/>
  <line x1="290" y1="270" x2="380" y2="270" stroke="#F87171" stroke-width="1.5" opacity="0.3" stroke-dasharray="3 2"/>
  <line x1="290" y1="290" x2="400" y2="290" stroke="#2DD4BF" stroke-width="1.5" opacity="0.25" stroke-dasharray="3 2"/>
  <line x1="290" y1="310" x2="360" y2="310" stroke="#F87171" stroke-width="1.5" opacity="0.2" stroke-dasharray="3 2"/>
  <text x="400" y="390" text-anchor="middle" fill="#2DD4BF" font-family="sans-serif" font-size="20" font-weight="bold" opacity="0.9">Mass Emails in Gmail</text>
  <text x="400" y="416" text-anchor="middle" fill="#F87171" font-family="sans-serif" font-size="13" opacity="0.7">Complete Step-by-Step Guide</text>
</svg>