<svg viewBox="0 0 800 450" xmlns="http://www.w3.org/2000/svg">
  <rect width="800" height="450" fill="#1a1a2e"/>
  <rect x="280" y="80" width="240" height="160" rx="12" fill="none" stroke="#F87171" stroke-width="2.5" opacity="0.7"/>
  <path d="M280 80 L400 160 L520 80" stroke="#F87171" stroke-width="2.5" fill="none" stroke-linecap="round" opacity="0.8"/>
  <text x="400" y="210" text-anchor="middle" fill="#F87171" font-family="sans-serif" font-size="14" opacity="0.6">SPAM</text>
  <path d="M310 260 Q315 250 325 260 Q330 270 340 258" stroke="#F87171" stroke-width="1.5" fill="none" opacity="0.4"/>
  <path d="M350 258 Q360 248 370 258" stroke="#F87171" stroke-width="1.5" fill="none" opacity="0.4"/>
  <path d="M380 260 Q390 250 400 260" stroke="#F87171" stroke-width="1.5" fill="none" opacity="0.4"/>
  <path d="M410 258 Q420 248 430 258" stroke="#F87171" stroke-width="1.5" fill="none" opacity="0.4"/>
  <path d="M440 260 Q450 250 460 260" stroke="#F87171" stroke-width="1.5" fill="none" opacity="0.4"/>
  <path d="M470 258 Q480 248 490 258" stroke="#F87171" stroke-width="1.5" fill="none" opacity="0.4"/>
  <circle cx="200" cy="150" r="20" fill="none" stroke="#2DD4BF" stroke-width="2" opacity="0.5"/>
  <path d="M192 150 Q200 140 208 150" stroke="#2DD4BF" stroke-width="2" fill="none" stroke-linecap="round" opacity="0.7"/>
  <circle cx="600" cy="150" r="20" fill="none" stroke="#2DD4BF" stroke-width="2" opacity="0.5"/>
  <path d="M592 150 Q600 140 608 150" stroke="#2DD4BF" stroke-width="2" fill="none" stroke-linecap="round" opacity="0.7"/>
  <path d="M150 180 Q160 170 170 180 Q180 190 190 178" stroke="#2DD4BF" stroke-width="1.5" fill="none" opacity="0.3"/>
  <path d="M610 180 Q620 170 630 180 Q640 190 650 178" stroke="#2DD4BF" stroke-width="1.5" fill="none" opacity="0.3"/>
  <rect x="350" y="270" width="100" height="15" rx="7" fill="none" stroke="#2DD4BF" stroke-width="1.5" opacity="0.5"/>
  <rect x="352" y="272" width="60" height="11" rx="5" fill="#2DD4BF" opacity="0.3"/>
  <text x="400" y="370" text-anchor="middle" fill="#F87171" font-family="sans-serif" font-size="20" font-weight="bold" opacity="0.9">The Origin of Spam</text>
  <text x="400" y="398" text-anchor="middle" fill="#2DD4BF" font-family="sans-serif" font-size="13" opacity="0.7">What Makes an Email Spam</text>
</svg>