<svg viewBox="0 0 800 450" xmlns="http://www.w3.org/2000/svg">
  <rect width="800" height="450" fill="#1a1a2e"/>
  <rect x="200" y="70" width="180" height="120" rx="8" fill="none" stroke="#F87171" stroke-width="2" opacity="0.6" stroke-dasharray="4 3"/>
  <text x="290" y="105" text-anchor="middle" fill="#F87171" font-family="sans-serif" font-size="11" opacity="0.6">Before</text>
  <line x1="225" y1="125" x2="355" y2="125" stroke="#F87171" stroke-width="1.5" opacity="0.3"/>
  <line x1="225" y1="140" x2="340" y2="140" stroke="#F87171" stroke-width="1.5" opacity="0.3"/>
  <path d="M230 152 L240 162" stroke="#F87171" stroke-width="1.5" opacity="0.5"/>
  <path d="M240 152 L230 162" stroke="#F87171" stroke-width="1.5" opacity="0.5"/>
  <line x1="250" y1="157" x2="350" y2="157" stroke="#F87171" stroke-width="1.5" opacity="0.3"/>
  <path d="M230 167 L240 177" stroke="#F87171" stroke-width="1.5" opacity="0.5"/>
  <path d="M240 167 L230 177" stroke="#F87171" stroke-width="1.5" opacity="0.5"/>
  <line x1="250" y1="172" x2="330" y2="172" stroke="#F87171" stroke-width="1.5" opacity="0.3"/>
  <path d="M395 130 Q420 120 440 130 L440 140 Q420 150 395 140Z" stroke="#2DD4BF" stroke-width="2" fill="none" stroke-linecap="round" opacity="0.6"/>
  <path d="M410 128 L430 135" stroke="#2DD4BF" stroke-width="1.5" opacity="0.5"/>
  <path d="M410 138 L430 131" stroke="#2DD4BF" stroke-width="1.5" opacity="0.5"/>
  <rect x="460" y="70" width="180" height="120" rx="8" fill="none" stroke="#2DD4BF" stroke-width="2" opacity="0.6" stroke-dasharray="4 3"/>
  <text x="550" y="105" text-anchor="middle" fill="#2DD4BF" font-family="sans-serif" font-size="11" opacity="0.6">After</text>
  <path d="M485 120 L495 130 L510 115" stroke="#2DD4BF" stroke-width="2" fill="none" stroke-linecap="round" opacity="0.7"/>
  <line x1="520" y1="123" x2="615" y2="123" stroke="#2DD4BF" stroke-width="1.5" opacity="0.4"/>
  <path d="M485 140 L495 150 L510 135" stroke="#2DD4BF" stroke-width="2" fill="none" stroke-linecap="round" opacity="0.7"/>
  <line x1="520" y1="143" x2="605" y2="143" stroke="#2DD4BF" stroke-width="1.5" opacity="0.4"/>
  <path d="M485 160 L495 170 L510 155" stroke="#2DD4BF" stroke-width="2" fill="none" stroke-linecap="round" opacity="0.7"/>
  <line x1="520" y1="163" x2="610" y2="163" stroke="#2DD4BF" stroke-width="1.5" opacity="0.4"/>
  <path d="M250 230 Q280 210 310 230 Q340 250 370 225 Q400 200 430 228 Q460 255 490 225 Q520 195 550 230" stroke="#2DD4BF" stroke-width="2" fill="none" stroke-linecap="round" opacity="0.5"/>
  <circle cx="310" cy="230" r="4" fill="#2DD4BF" opacity="0.6"/>
  <circle cx="430" cy="228" r="4" fill="#2DD4BF" opacity="0.6"/>
  <circle cx="550" cy="230" r="4" fill="#2DD4BF" opacity="0.6"/>
  <text x="400" y="310" text-anchor="middle" fill="#2DD4BF" font-family="sans-serif" font-size="20" font-weight="bold" opacity="0.9">Email Hygiene Guide</text>
  <text x="400" y="338" text-anchor="middle" fill="#F87171" font-family="sans-serif" font-size="13" opacity="0.7">Scrub, Clean, Deliver</text>
</svg>