<?xml version="1.0" encoding="UTF-8"?>
<svg xmlns="http://www.w3.org/2000/svg" width="143" height="21" viewBox="0 0 143 21" fill="none">
  <path d="M4.64359 15.5795C5.30074 16.0333 6.17209 16.3673 7.25765 16.5815C7.63161 16.6723 8.08544 16.7159 8.61914 16.7159C9.59578 16.7159 10.4127 16.5126 11.0589 16.1023C11.7088 15.692 12.0319 15.0893 12.0319 14.287C12.0319 13.7351 11.8468 13.2958 11.4728 12.9654C11.0989 12.635 10.6886 12.399 10.2457 12.2574C9.7991 12.1159 9.25087 11.9743 8.5901 11.829L7.92206 11.6947C6.8728 11.4805 5.99782 11.2735 5.29347 11.0666C4.58913 10.8633 3.92472 10.5547 3.29299 10.1444C2.66126 9.73416 2.14934 9.20045 1.75723 8.54331C1.32881 7.79539 1.11824 6.98576 1.11824 6.11441C1.11824 5.38465 1.27799 4.68394 1.59748 4.00501C1.91698 3.32971 2.38896 2.73428 3.01343 2.21873C3.76134 1.59789 4.54919 1.19489 5.37335 1.01699C6.20113 0.839087 7.11969 0.751953 8.13627 0.751953C9.16737 0.751953 10.1912 0.90444 11.2042 1.20578C12.2171 1.50713 13.1538 1.95369 14.007 2.53823C14.6642 2.9848 15.1906 3.41684 15.5827 3.84526L13.0195 6.05995C11.8468 4.97439 10.4671 4.27367 8.88418 3.95055C8.40493 3.84526 7.88938 3.7908 7.33753 3.7908C6.1975 3.7908 5.40602 4.12845 4.96308 4.80375C4.76703 5.1414 4.669 5.47178 4.669 5.79128C4.669 6.34314 4.89047 6.78608 5.33704 7.12372C5.7473 7.42507 6.25923 7.67921 6.8728 7.88616C7.48638 8.08948 8.29965 8.30731 9.31259 8.53967L10.0605 8.72484C11.1279 8.97535 12.0428 9.28032 12.8089 9.64702C13.575 10.0101 14.2249 10.5147 14.7586 11.1537C15.0599 11.5095 15.2995 11.9597 15.4774 12.5007C15.6553 13.0453 15.7425 13.6189 15.7425 14.2216C15.7425 15.6448 15.2523 16.8175 14.2757 17.7433C13.5096 18.4913 12.5947 19.0504 11.5273 19.4243C10.4599 19.7983 9.33074 19.9834 8.13989 19.9834C6.50248 19.9834 4.95219 19.6422 3.48178 18.956C2.015 18.2698 0.878615 17.2968 0.0798745 16.0333L0 15.899L2.64311 13.6298C3.3184 14.483 3.98645 15.1257 4.64359 15.5795Z" fill="#0E243A"></path>
  <path d="M34.2771 19.1814C32.97 19.7405 31.5686 20.02 30.0764 20.02C28.2248 20.02 26.5365 19.6098 25.008 18.7929C23.4795 17.976 22.2633 16.836 21.3665 15.3764C20.4661 13.9169 20.0195 12.2541 20.0195 10.3879C20.0195 8.5218 20.4697 6.85533 21.3665 5.39945C22.2633 3.93993 23.4795 2.80354 25.008 1.98302C26.5365 1.16612 28.2284 0.755859 30.0764 0.755859C31.5686 0.755859 32.97 1.03542 34.2771 1.59454C35.5841 2.15366 36.7023 2.93425 37.6245 3.92904L35.2501 6.24902C34.6437 5.51926 33.8922 4.94925 32.9954 4.54262C32.0987 4.13235 31.122 3.92904 30.0728 3.92904C28.8456 3.92904 27.7274 4.19045 26.7253 4.71689C25.7196 5.24333 24.9245 5.99487 24.3364 6.97152C23.7482 7.95179 23.4577 9.08818 23.4577 10.3879C23.4577 11.6877 23.7518 12.8241 24.3364 13.8044C24.9245 14.7846 25.7196 15.5362 26.7253 16.059C27.731 16.5855 28.8456 16.8469 30.0728 16.8469C31.122 16.8469 32.095 16.6435 32.9954 16.2333C33.8922 15.823 34.6437 15.2566 35.2501 14.5269L37.6245 16.8469C36.6987 17.8453 35.5841 18.6222 34.2771 19.1814Z" fill="#0E243A"></path>
  <path d="M56.2386 11.2856C55.5016 12.3275 54.4559 13.0682 53.1053 13.5148L52.9964 13.5692L58.5731 19.7304H53.8496L49.1806 13.994H46.1381V19.7304H42.6963V1.05078H50.0084C51.5187 1.05078 52.8294 1.31582 53.9295 1.84952C55.0332 2.38322 55.8755 3.1384 56.4637 4.11867C57.0518 5.09531 57.3423 6.22807 57.3423 7.50606C57.3459 8.98736 56.9756 10.2436 56.2386 11.2856ZM53.4212 5.6145C53.1017 5.13525 52.5535 4.77945 51.7801 4.54709C51.0068 4.31473 49.9249 4.19855 48.538 4.19855H46.1345V10.8172H48.538C49.9249 10.8172 51.0068 10.701 51.7801 10.4687C52.5535 10.2363 53.1017 9.8805 53.4212 9.40125C53.7407 8.92201 53.9004 8.29028 53.9004 7.50606C53.9004 6.72547 53.7407 6.09374 53.4212 5.6145Z" fill="#0E243A"></path>
  <path d="M75.8075 1.05078H79.2747V11.6958C79.2747 13.3877 78.9262 14.8581 78.2327 16.1107C77.5393 17.3632 76.5517 18.329 75.2701 19.0043C73.9885 19.6796 72.4963 20.0172 70.7863 20.0172C69.0799 20.0172 67.5841 19.6796 66.3024 19.0043C65.0208 18.329 64.0333 17.3632 63.3398 16.1107C62.6464 14.8581 62.2979 13.3841 62.2979 11.6958V1.05078H65.7397V8.94742C65.7397 10.7264 65.8595 12.1714 66.0991 13.2824C66.3388 14.3934 66.8216 15.2647 67.5514 15.8965C68.2811 16.5282 69.3558 16.8441 70.779 16.8441C72.2022 16.8441 73.2769 16.5282 74.0067 15.8965C74.7364 15.2647 75.2157 14.3934 75.448 13.2824C75.6804 12.1714 75.7966 10.7264 75.7966 8.94742V1.05078H75.8075Z" fill="#0E243A"></path>
  <path d="M99.0364 11.311C99.8461 12.244 100.249 13.3514 100.249 14.633C100.249 15.5951 99.9986 16.4556 99.5012 17.2216C99.0038 17.9877 98.245 18.5977 97.232 19.0515C96.2191 19.5053 94.9738 19.7304 93.4961 19.7304H84.877V1.05078H92.0547C94.2767 1.05078 95.9577 1.4683 97.0977 2.30335C98.2377 3.1384 98.8041 4.23485 98.8041 5.58545C98.8041 6.52942 98.5427 7.4044 98.0162 8.21403C97.4898 9.02366 96.6076 9.561 95.3622 9.82967C97.0033 9.88413 98.2268 10.3779 99.0364 11.311ZM94.5925 4.65238C94.077 4.35103 93.2855 4.19855 92.2181 4.19855L90.0034 4.22396L89.4443 4.19855L88.3224 4.22396V8.22492H90.0034C91.4811 8.22492 92.5376 8.20677 93.1802 8.17047C93.9608 8.10148 94.5236 7.88728 94.8612 7.53147C95.1989 7.17567 95.3695 6.69643 95.3695 6.09011C95.3695 5.43659 95.1117 4.95735 94.5925 4.65238ZM95.8233 12.1242C95.1662 11.645 94.1496 11.4054 92.7809 11.4054H91.394H88.3261V16.5827H91.2342H92.6502C94.0734 16.5827 95.1226 16.3467 95.7979 15.8747C96.4732 15.4027 96.8109 14.7782 96.8109 13.994C96.8072 13.2279 96.4805 12.6071 95.8233 12.1242Z" fill="#0E243A"></path>
  <path d="M119.477 11.311C120.287 12.244 120.69 13.3514 120.69 14.633C120.69 15.5951 120.439 16.4556 119.942 17.2216C119.444 17.9877 118.685 18.5977 117.672 19.0515C116.66 19.5053 115.414 19.7304 113.937 19.7304H105.317V1.05078H112.495C114.717 1.05078 116.398 1.4683 117.538 2.30335C118.678 3.1384 119.245 4.23485 119.245 5.58545C119.245 6.52942 118.983 7.4044 118.457 8.21403C117.93 9.02366 117.048 9.561 115.803 9.82967C117.444 9.88413 118.667 10.3779 119.477 11.311ZM115.033 4.65238C114.517 4.35103 113.726 4.19855 112.659 4.19855L110.444 4.22396L109.885 4.19855L108.763 4.22396V8.22492H110.444C111.922 8.22492 112.978 8.20677 113.621 8.17047C114.401 8.10148 114.964 7.88728 115.302 7.53147C115.639 7.17567 115.81 6.69643 115.81 6.09011C115.806 5.43659 115.549 4.95735 115.033 4.65238ZM116.26 12.1242C115.603 11.645 114.586 11.4054 113.218 11.4054H111.831H108.763V16.5827H111.671H113.087C114.51 16.5827 115.559 16.3467 116.235 15.8747C116.91 15.4027 117.248 14.7782 117.248 13.994C117.248 13.2279 116.917 12.6071 116.26 12.1242Z" fill="#0E243A"></path>
  <path d="M29.7784 12.8235C31.0316 12.8235 32.0476 11.8075 32.0476 10.5543C32.0476 9.30109 31.0316 8.28516 29.7784 8.28516C28.5252 8.28516 27.5093 9.30109 27.5093 10.5543C27.5093 11.8075 28.5252 12.8235 29.7784 12.8235Z" fill="#2DCE8E"></path>
  <path d="M136.436 11.1621L143 1.05078H138.945L134.697 7.89453L136.436 11.1621Z" fill="#2DCE8E"></path>
  <path d="M126.615 1.05078H122.56L131.099 14.2082V19.7304H134.541V14.2082L132.831 11.0314L126.615 1.05078Z" fill="#0E243A"></path>
</svg>
